<svg width="40" height="40" viewBox="0 0 40 40" fill="none" xmlns="http://www.w3.org/2000/svg">
<rect width="40" height="40" fill="#FDFDFF"/>
<path d="M14.9318 4.06483C14.8181 4.02208 14.6977 4.00012 14.5763 4H4.72426C4.53218 4 4.34796 4.07631 4.21213 4.21213C4.07631 4.34796 4 4.53218 4 4.72426V14.9997L14.9318 4.06483Z" fill="#474747"/>
<path d="M4.21191 36.7865C4.27919 36.8538 4.3591 36.9071 4.44706 36.9435C4.53502 36.9798 4.6293 36.9984 4.72447 36.9982H14.2756C14.4677 36.9982 14.6519 36.9219 14.7878 36.786C14.9236 36.6502 14.9999 36.466 14.9999 36.2739V25.9995L4.21191 36.7865Z" fill="#474747"/>
<path d="M25.9985 14.9995V36.9087L26.0644 36.9361L36.9982 25.9992L25.9985 14.9995Z" fill="#151615"/>
<path d="M14.9997 25.9993V4.08914C14.9784 4.07901 14.9561 4.06888 14.9338 4.06078L4 14.9997V36.2717C3.99991 36.3667 4.01857 36.4608 4.05489 36.5486C4.09122 36.6364 4.14451 36.7161 4.21171 36.7833L14.9997 25.9993ZM36.998 25.9993V4.72426C36.998 4.53218 36.9217 4.34796 36.7859 4.21213C36.6501 4.07631 36.4658 4 36.2738 4H26.7226C26.5307 4 26.3466 4.07617 26.2108 4.21177C26.075 4.34738 25.9986 4.53134 25.9983 4.72325V14.9997L36.998 25.9993ZM36.998 25.9993L26.0642 36.9332C26.1779 36.9759 26.2983 36.9979 26.4197 36.998H36.2748C36.4669 36.998 36.6511 36.9217 36.7869 36.7859C36.9227 36.6501 36.999 36.4658 36.999 36.2737V25.9993H36.998Z" fill="#A7A7A7"/>
<path d="M15.2963 4.29683C15.2101 4.21195 15.1092 4.14332 14.9985 4.09424V25.9994L25.7014 36.7012C25.7878 36.786 25.8886 36.8546 25.9992 36.9038V14.9997L15.2963 4.29683Z" fill="#474747"/>
</svg>
