<svg width="290" height="55" viewBox="0 0 290 55" fill="none" xmlns="http://www.w3.org/2000/svg">
<path fill-rule="evenodd" clip-rule="evenodd" d="M272.672 54.1455C275.133 53.335 277.032 52.222 278.81 50.5488L280.466 48.9905L280.466 51.2305L280.466 53.4705L284.983 53.4705L289.5 53.4705L289.5 35.8517L289.5 18.233L284.983 18.233L280.466 18.233L280.466 20.3594C280.466 22.504 279.67 23.2197 279.062 21.6218C278.881 21.1467 277.43 19.9851 275.836 19.0398C273.372 17.5786 272.308 17.3277 268.723 17.3624C263.698 17.4104 260.454 18.8587 257.627 22.3163C250.129 31.4871 252.475 48.0658 261.962 52.948C264.642 54.3271 270.226 54.9517 272.672 54.1455ZM194.647 54.1576C200.068 52.7232 204.616 48.9668 207.106 43.867C209.021 39.9454 209.08 31.9871 207.225 27.9227C205.381 23.8849 202.55 20.9384 198.671 19.0197C195.774 17.5871 194.51 17.3308 190.431 17.3502C182.393 17.3879 176.716 20.987 173.583 28.0308C172.098 31.3693 171.949 32.2915 172.189 36.695C172.6 44.2407 175.864 49.5573 181.92 52.5464C185.312 54.2208 191.465 54.9997 194.647 54.1576ZM122.267 53.8052C124.556 52.982 126.762 51.4212 127.678 49.9771C128.565 48.5773 129.304 49.1982 129.304 51.3441L129.304 53.4705L133.821 53.4705L138.337 53.4705L138.337 27.0423C138.337 -2.33239 138.681 -0.244268 134.145 1.58687C130.031 3.24789 129.304 5.18778 129.304 14.5075C129.304 18.8958 129.08 22.4858 128.806 22.4858C128.533 22.4858 127.652 21.7762 126.849 20.9092C123.788 17.6041 118.789 16.3806 113.536 17.6521C111.046 18.2548 109.716 19.0799 107.283 21.5343C103.414 25.4372 101.926 29.4142 101.926 35.8517C101.926 41.8269 103.363 45.9309 106.809 49.7979C110.78 54.253 116.733 55.7962 122.267 53.8052ZM79.4153 54.0033C80.6282 53.6576 82.7282 52.4182 84.0827 51.2493L86.5446 49.1229L86.5446 51.2967L86.5446 53.4705L91.0614 53.4705L95.5782 53.4705L95.5782 35.8517L95.5783 18.233L91.0615 18.233L86.5446 18.233L86.5446 20.473L86.5446 22.713L84.8885 21.1498C81.8568 18.2882 79.3424 17.3459 74.7696 17.3581C71.2417 17.3672 70.0474 17.6497 67.7137 19.0294C62.4062 22.1674 59.4438 28.193 59.4438 35.8517C59.4438 43.4843 62.5766 49.8246 67.8047 52.7712C70.7075 54.4073 76.0186 54.9711 79.4153 54.0033ZM247.343 42.3397C247.343 36.1889 247.068 29.6931 246.731 27.9038C245.494 21.3217 241.204 17.6254 234.804 17.6254C230.415 17.6254 228.881 18.1607 226.03 20.6856L223.856 22.6115L223.856 20.4226L223.856 18.233L219.339 18.233L214.822 18.233L214.822 35.8517L214.822 53.4705L219.339 53.4705L223.856 53.4705L223.856 42.7783C223.856 31.2757 224.336 28.9707 227.111 27.1359C229.679 25.4378 233.46 25.6401 235.716 27.5958L237.406 29.0606L237.707 41.1137L238.008 53.1667L242.676 53.3441L247.343 53.5215L247.343 42.3397ZM155.401 53.0653C155.622 52.8429 155.802 48.9971 155.802 44.5202C155.802 40.0019 156.084 35.8493 156.434 35.1889C156.782 34.534 159.357 32.5072 162.157 30.6852C167.228 27.385 169.647 24.6201 169.652 22.1206C169.655 20.3302 168.441 17.0179 167.782 17.0179C167.48 17.0179 164.777 18.6582 161.776 20.6631C158.775 22.668 156.218 24.3084 156.094 24.3084C155.97 24.3084 155.786 23.0095 155.685 21.4226L155.501 18.5367L150.984 18.5367L146.468 18.5367L146.308 36.0036L146.148 53.4705L150.574 53.4705C153.008 53.4705 155.18 53.2882 155.401 53.0653ZM54.3837 50.5846C54.188 48.9971 53.2076 38.6768 52.2042 27.6499C51.2009 16.623 50.2373 6.70299 50.0627 5.60576L49.7453 3.60998L43.6644 3.78313L37.5836 3.95567L32.7639 20.49C30.1128 29.5837 27.7628 36.9113 27.5412 36.7734C27.3196 36.6348 24.998 29.1262 22.3818 20.0872L17.6247 3.6519L11.4337 3.6519C7.99247 3.6519 5.24204 3.90463 5.24204 4.21995C5.24204 5.22969 1.06671 49.4546 0.778229 51.496L0.5 53.4705L4.91199 53.4705L9.32343 53.4705L9.65045 51.496C9.82993 50.4103 10.5809 42.6866 11.3192 34.3328C12.0576 25.9791 12.8423 18.9322 13.0627 18.6728C13.2831 18.4134 15.4759 25.0915 17.9349 33.5133C20.3938 41.935 22.9257 49.4935 23.561 50.31C24.8498 51.9674 27.9574 53.4705 30.0935 53.4705C31.4112 53.4705 31.7985 52.431 36.4924 36.3074C41.1802 20.205 42.5714 16.2949 42.5876 19.1746C42.5918 19.8265 43.2688 27.3309 44.0926 35.8517C44.9165 44.3725 45.591 51.8222 45.591 52.4073C45.5922 53.3265 46.2119 53.4705 50.1656 53.4705L54.739 53.4705L54.3837 50.5846ZM267.362 44.9679C264.365 43.1252 263.006 40.4053 263.004 36.2472C263.001 31.9422 264.341 28.8316 266.868 27.2763C269.861 25.4342 272.182 25.2635 275.303 26.6566C277.511 27.6414 278.338 28.4458 279.267 30.5096C283.467 39.8463 275.254 49.8222 267.362 44.9679ZM187.114 45.1957C183.792 43.8549 181.699 40.2582 181.699 35.89C181.699 28.8431 186.482 24.4858 192.44 26.1043C200.643 28.3322 201.37 41.8555 193.473 45.3252C191.046 46.3914 190.025 46.3707 187.114 45.1957ZM116.306 45.2042C112.498 43.381 110.48 37.904 111.798 32.9677C114.365 23.3503 126.225 23.2592 128.757 32.8377C131.018 41.3937 123.645 48.7171 116.306 45.2042ZM73.2339 44.8008C67.0971 40.6653 67.7481 29.8887 74.3294 26.6748C80.612 23.6067 86.5446 28.1134 86.5446 35.9532C86.5446 44.0153 79.2569 48.8598 73.2339 44.8008Z" fill="#004737"/>
</svg>
