<svg version="1.2" xmlns="http://www.w3.org/2000/svg" viewBox="0 0 1000 667" width="1000" height="667">
	<title>Madrona_LockupV_MADGRN_RGB_1000W</title>
	<style>
		.s0 { fill: #024638 } 
	</style>
	<path id="Path 0" fill-rule="evenodd" class="s0" d="m38 490c11.5 0 21.2 0.3 21.4 0.8 0.3 0.4 7.9 25.9 17 56.7 9.1 30.8 16.9 56.7 17.2 57.5 0.3 0.8 8.3-24.6 34.9-114.5l21.3-0.3c16.2-0.1 21.3 0.1 21.7 1 0.3 0.7 4.1 39.3 8.5 85.8 4.4 46.5 8 84.6 8 84.8 0 0.1-7.1 0.2-31.5 0.2l-0.7-4.2c-0.3-2.4-3-29.6-6-60.5-2.9-30.9-5.6-55.9-5.9-55.5-0.4 0.4-7.7 24.8-16.4 54.2-8.6 29.4-16.6 56.3-19.5 66h-5.2c-2.9 0-7.7-0.7-10.5-1.5-3.2-0.9-6.9-3-9.4-5.3-2.3-2-5.2-5.7-6.4-8.2-1.2-2.5-8.9-27-17-54.5-8.1-27.5-15-50.3-15.3-50.7-0.4-0.4-3.1 25-6.1 56.5-2.9 31.5-5.6 58.7-6.6 63.7h-31.5l0.5-4.3c0.2-2.3 3.9-40.4 8-84.7 4.2-44.3 7.8-81.1 8-81.8 0.3-0.9 5.6-1.2 21.5-1.2zm889 47.1c3-0.1 7.7 0.3 10.5 0.8 2.7 0.5 7.7 2 11 3.2 4.4 1.7 7.8 4.1 19.6 15.4l-0.1-15.5h32v121h-32v-15l-5.8 5.8c-3.2 3.3-8.1 7-11.2 8.5-3 1.4-7.5 3-10 3.6-2.5 0.6-8.3 1.1-13 1.1-4.7 0-11-0.7-14-1.5-3-0.8-7.9-2.7-10.9-4.2-3.2-1.7-8-5.7-11.9-9.8-4.6-4.9-7.7-9.4-10.3-15-2.1-4.4-4.5-10.7-5.3-14-0.9-3.3-1.9-9.8-2.3-14.5-0.4-5.2-0.1-11.6 0.7-16.5 0.7-4.4 2.3-11.1 3.7-15 1.4-3.9 3.8-9.3 5.3-12 1.6-2.8 4.8-7.3 7.2-10 2.5-2.8 6.7-6.4 9.4-8.2 2.7-1.8 6.9-3.9 9.4-4.8 2.5-0.9 6.3-2 8.5-2.5 2.2-0.4 6.5-0.8 9.5-0.9zm-9.9 39.6c-1.9 2.1-4.6 6.3-6 9.3-1.8 3.9-2.6 7.8-2.9 13.5-0.3 5.7 0 9.7 1.3 14 1 3.3 2.8 7.6 4 9.5 1.3 1.9 3.6 4.7 5.1 6.2 1.6 1.5 4.9 3.6 7.4 4.7 3 1.4 6.6 2.1 11 2.1 3.6 0 8.1-0.5 10-1.1 1.9-0.5 5.7-2.7 8.5-4.7 3.7-2.8 5.9-5.6 8.5-10.6 3.4-6.7 3.5-7.3 3.5-18 0-9.8-0.3-11.7-2.6-16.6-1.4-3-4.1-7-6-8.9-1.9-1.9-5.7-4.5-8.4-5.8-3.8-1.7-6.8-2.3-12.5-2.3-5.9 0-8.5 0.5-12.5 2.4-2.8 1.3-6.5 4.2-8.4 6.3zm-395.6-573.4c0.5 0.2 2.2 2.1 3.7 4.3 1.5 2.1 3.4 6.6 4.3 9.9 1.2 4.2 1.5 7.6 1.1 11.5-0.4 3-1.8 8-3.2 11-2 4.3-6.5 9.5-37.9 41l31 31 43.7-43.7c41.3-41.4 43.8-43.7 45.5-42.2 1 0.9 3.1 4.5 4.8 8 2.5 5.4 3 7.6 2.9 13.9 0 5.5-0.6 8.9-2.4 13-2 4.9-9.5 12.7-125.5 129l31 31 146.4-146.5 2.6 2.5c1.4 1.4 3.5 4.8 4.7 7.5 1.8 3.9 2.3 6.9 2.3 13.5 0 6.9-0.5 9.5-2.4 13.5-1.9 4-20.3 22.9-184.6 187.5l31 31 201.2-201.5 3.1 4.5c1.6 2.5 3.8 7 4.7 10 1.3 3.9 1.7 7.4 1.3 12-0.3 3.6-1.5 8.8-2.7 11.5-1.7 3.8-6.9 9.7-40.6 43.5h83.5v3c0 1.7-1 5.6-2.2 8.8-1.5 3.9-3.8 7.4-7.7 11.3-4.7 4.7-6.8 6-12.6 7.8-6.7 2.1-8.7 2.1-94.3 2.1l-43.7 44h121l-0.7 4.2c-0.4 2.4-1.6 6.4-2.7 9.1-1.2 2.6-3.8 6.6-6 9-2.1 2.3-6.5 5.6-15.6 10.2l-129 0.6-40.5 40.4v89.5h-33v-89.5l-40.5-40.4-129-0.6-5.5-2.7c-3-1.4-7.5-4.8-9.9-7.5-2.5-2.6-5.3-6.6-6.3-8.8-0.9-2.2-2.1-6.1-3.3-13.5h121l-44-44h-43.5c-40.3 0-44-0.1-50-1.9-4.8-1.4-7.9-3.2-11.9-6.8-2.9-2.6-6.5-7-7.8-9.8-1.4-2.7-2.8-7.1-3.8-14.5h84l-19.6-19.7c-17.4-17.5-19.9-20.5-21.8-25.5-1.3-3.8-2.1-8.1-2.1-12.3 0-3.8 0.7-8.5 1.8-11.2 1-2.7 3.1-6.5 7.7-12.4l146.5 146.6 31-31-64.4-64.5c-56.7-56.9-64.6-65.1-66.2-69.5-1.3-3.5-1.9-7.6-1.9-13.5 0-7.2 0.4-9.3 2.7-13.5 1.4-2.7 3.6-5.9 6.9-9l91.9 92 31-31-34-34c-29.2-29.3-34.3-34.8-36.7-40-2.4-5.1-2.8-7.3-2.7-14 0-6.5 0.5-9 2.6-13.5 1.5-3 3.6-6.4 6.9-9.5l32.9 33 27.2-27.3c15-14.9 27.7-27.1 28.3-26.9zm-44.5 477.7v181h-33v-15l-4.9 5.3c-2.7 2.8-7.1 6.4-9.7 7.9-2.7 1.5-7.6 3.4-10.9 4.2-3.3 0.9-9.6 1.6-14 1.6-4.4 0-10.6-0.7-13.8-1.5-3.1-0.8-8.1-2.7-11-4.1-2.8-1.5-7.9-5.4-11.2-8.8-3.5-3.5-7.6-9-9.7-13.1-2-3.8-4.5-9.9-5.6-13.5-1.1-3.6-2.5-10.3-3.2-15-0.9-6.4-0.9-10.6 0-17 0.6-4.7 2.4-12.3 4.1-17 1.6-4.7 4.4-10.9 6.1-13.8 1.8-2.9 5.8-7.8 8.8-10.9 3.4-3.3 8.2-6.8 12.5-8.9 4.6-2.2 9.8-3.8 15-4.6 6.2-0.9 9.8-0.9 16 0 4.6 0.7 10.7 2.5 14.2 4.2 3.5 1.7 8.7 5.4 17.1 13.5l0.4-25.5c0.4-20.4 0.8-26.4 2.1-30 0.9-2.5 3.4-6.5 5.4-8.9 2.1-2.4 5.2-5.1 6.8-5.9 1.6-0.8 4.8-2.1 7-2.8 2.2-0.7 5.7-1.3 11.5-1.4zm-82.9 95.1c-1.8 1.9-4.4 5.5-5.7 8.2-1.3 2.6-2.9 7.7-3.5 11.5-1 5.5-0.9 8.1 0.5 14.7 1.2 6 2.5 9.4 5.3 13.5 2.3 3.2 5.8 6.7 8.7 8.5 4.2 2.5 6.2 3.1 13 3.4 7.1 0.4 8.8 0.1 13.6-2.1 3-1.5 7.3-4.6 9.4-7 2.2-2.3 5.1-6.8 6.5-9.8 2.2-4.7 2.6-6.9 2.5-15 0-7.3-0.5-10.8-2.2-15-1.2-3-3.6-7.3-5.5-9.5-1.8-2.2-5.8-5.2-8.8-6.8-4.5-2.3-6.7-2.7-12.9-2.7-5.7 0-8.7 0.6-12.5 2.3-2.8 1.3-6.5 3.9-8.4 5.8zm185.1-40.1c0.4 0 2 2.4 3.4 5.3 1.5 2.8 2.9 7.5 3.2 10.2 0.4 3.5 0 6.5-1.3 10-1 2.8-3.7 6.9-5.9 9.3-2.3 2.4-11.2 8.9-20 14.5-13.3 8.6-16.3 10.9-21.1 19.2l-0.5 57.5h-33v-121h33v10.5c0 5.8 0.2 10.5 0.5 10.5 0.3 0 9.6-5.8 20.7-13 11.1-7.1 20.6-13 21-13zm-322.2 1.1c3 0 8.6 0.6 12.5 1.5 3.9 0.8 9.6 2.9 12.9 4.7 3.2 1.8 7.8 5.3 10.2 8 2.4 2.6 4.6 4.7 4.9 4.7 0.3 0 0.5-3.4 0.5-15l32.5 0.5 0.5 120.5h-33l0.1-15.5-6.3 6.1c-3.5 3.4-8.1 7-10.3 8.1-2.2 1.2-6.5 2.8-9.5 3.7-3.2 0.9-9.1 1.6-14 1.6-4.7 0-11.2-0.7-14.5-1.6-3.3-0.8-8.3-2.7-11-4.2-2.8-1.5-7.8-5.5-11.3-8.9-4.4-4.5-7.3-8.6-10.2-14.5-2.1-4.6-4.8-12.1-6-16.8-1.3-5.6-2-12-2-18.5 0-6.8 0.6-12.6 2-18 1.1-4.4 3.9-11.8 6.1-16.5 2.8-5.7 6-10.5 9.9-14.5 3.2-3.4 8.6-7.5 12.1-9.4 3.5-1.9 9.1-4 12.4-4.7 3.3-0.7 8.5-1.3 11.5-1.3zm-10.4 40c-2.2 2.4-4.9 6.4-5.9 8.9-1.1 2.5-2.3 7-2.8 10-0.4 3-0.3 8.4 0.1 12 0.5 3.6 2.3 9.3 4 12.8 2.2 4.5 4.3 7.1 7.6 9.5 2.5 1.7 6 3.7 7.7 4.4 1.8 0.6 6.3 1.2 10.2 1.2 5.4 0.1 8.2-0.5 12-2.3 2.7-1.3 6.7-4.1 8.7-6.2 2-2.2 5-6.6 6.5-9.9 2.5-5.3 2.8-7.1 2.8-16 0-8.6-0.4-10.8-2.6-15.5-1.4-3-4.1-7.2-6-9.3-1.9-2.1-5.7-5-8.4-6.3-4-1.9-6.6-2.4-12.5-2.4-5.7 0-8.7 0.6-12.5 2.4-2.8 1.2-6.8 4.3-8.9 6.7zm409.9-39.9c3.3-0.1 9.6 0.5 14 1.3 5 0.9 11.2 3 16.5 5.6 6.7 3.2 10.2 5.8 16.1 11.7 5.6 5.7 8.6 9.7 11.2 15.2 2 4.1 4.3 10.4 5.1 14 0.9 3.6 1.6 11 1.6 16.5 0 5.7-0.6 12.6-1.5 16-0.8 3.3-3.4 9.8-5.7 14.5-3.1 6.4-5.9 10.3-11.2 15.6-5.3 5.3-9.2 8.1-15.6 11.2-4.7 2.3-11.2 4.9-14.5 5.7-3.3 0.8-10.3 1.5-15.5 1.5-5.2 0-12.3-0.7-15.7-1.5-3.5-0.8-9.8-3.2-14-5.2-6-2.9-9.7-5.7-15.9-11.8-6-6-9-9.9-11.7-15.5-2-4.1-4.5-10.4-5.4-14-1.2-4.4-1.7-10.1-1.6-17.5 0-9 0.5-12.5 2.7-19 1.4-4.4 4.2-10.9 6.3-14.4 2.1-3.5 6.7-9.1 10.3-12.5 3.6-3.3 9.7-7.7 13.5-9.8 3.9-2 9.7-4.3 13-5.2 3.3-0.8 7.4-1.7 9-1.9 1.6-0.2 5.7-0.5 9-0.5zm-17.2 36.1c-1.7 1.2-4.5 4.2-6.2 6.7-1.7 2.5-3.7 7.2-4.6 10.5-0.8 3.3-1.5 8.5-1.5 11.5 0 3 0.7 8 1.6 11 0.9 3 2.6 7.1 3.9 9 1.2 1.9 3.7 4.8 5.6 6.4 1.9 1.6 5.4 3.8 7.9 5 3.2 1.4 6.6 2 11.5 2 5 0 8.3-0.6 11.5-2.1 2.5-1.2 6.3-4.1 8.4-6.5 2.2-2.4 4.9-6.3 5.9-8.8 1.1-2.5 2.3-7.2 2.8-10.5 0.4-3.3 0.3-8.8-0.2-12.2-0.5-3.5-1.9-8.2-3-10.5-1.2-2.4-3.1-5.6-4.3-7.3-1.2-1.6-5.1-4.5-8.7-6.3-5.3-2.7-7.5-3.2-12.9-3.2-3.6 0.1-8.3 0.7-10.5 1.5-2.2 0.8-5.4 2.5-7.2 3.8zm170-35.2c6.3-0.1 10.4 0.5 15 2 3.4 1.2 8 3.4 10.2 4.9 2.2 1.5 5.7 4.6 7.8 6.9 2 2.2 4.6 5.8 5.6 7.9 1 2 2.7 6.2 3.7 9.2 1.6 4.9 1.8 10.3 2.4 93h-33v-36c0-19.8-0.4-38.1-1-40.7-0.5-2.7-2.2-6.6-3.8-8.8-1.5-2.2-4.6-4.9-6.8-5.9-2.1-1.1-5.7-2.1-7.9-2.4-2.2-0.2-6.2 0-9 0.7-3.3 0.7-6.6 2.4-9.5 4.9-2.7 2.3-5.5 6-9.5 14.7l-0.5 73.5h-33l0.5-120.5 32.5-0.5v7.5c0 4.3 0.4 7.5 1 7.5 0.5 0 1-0.4 1-1 0-0.5 2-3 4.5-5.5 2.5-2.5 6.4-5.5 8.8-6.7 2.3-1.2 6-2.7 8.2-3.4 2.2-0.7 7.9-1.3 12.8-1.3z"/>
</svg>