<svg width="1592" height="417" viewBox="0 0 1592 417" fill="none" xmlns="http://www.w3.org/2000/svg">
<path d="M170.2 383.9C174.6 381.1 174.9 381 176.7 382.7C177.8 383.7 179.7 386.701 181.1 389.4C182.5 392.3 183.5 396.2 183.5 398.4C183.5 400.8 182.5 404.101 181.1 406.4C179.799 408.6 176.6 411.9 173.9 413.7C171.2 415.5 168.5 416.8 168 416.6C167.4 416.399 165.8 414.5 164.3 412.4C162.8 410.201 161.1 406.6 160.4 404.4C159.8 402.201 159.6 398.9 159.9 396.9C160.3 395 161.7 391.9 163.1 390.1C164.4 388.2 167.6 385.4 170.2 383.9Z" fill="white"/>
<path d="M244 380.9C244.3 380.9 245.7 381.7 247.2 382.6C248.8 383.6 251.5 385.7 253.3 387.4C255.2 389.1 257.3 391.7 258.1 393.2C258.9 394.7 259.5 397.6 259.5 399.7C259.5 401.8 258.4 405.7 257.1 408.4C255.7 411.2 253.7 414.2 252.6 415.2C251 416.5 250 416.7 248.5 415.9C247.4 415.4 244.6 413.3 242.4 411.2C240.101 409.1 237.601 406.2 236.9 404.7C236.1 403.2 235.5 400.7 235.5 399.2C235.5 397.7 236 394.9 236.6 392.9C237.3 391 239.1 387.5 240.7 385.2C242.3 382.9 243.8 380.9 244 380.9Z" fill="white"/>
<path d="M109.2 355C110.8 355 111.8 355.8 112.6 357.7C113.2 359.2 113.7 363.1 113.8 366.4C113.9 371 113.4 373.3 111.8 375.9C110.6 377.9 108.1 380.3 106.3 381.4C104.5 382.5 100.5 383.9 97.5 384.6C94.5 385.3 91.6998 385.6 91.2998 385.2C90.8998 384.8 90.1 382.1 89.5 379.2C88.8 375.7 88.8 372.4 89.5 369.2C90.2 366.1 91.4998 363.4 93.5996 361.4C95.2996 359.8 99.0004 357.7 101.9 356.7C104.7 355.8 108 355 109.2 355Z" fill="white"/>
<path d="M309.9 354.9C311.601 354.9 315 355.6 317.5 356.4C320 357.2 323.5 359.4 325.3 361.2C327.2 363 329.1 366.2 329.6 368.4C330.2 370.6 330.4 374 330 375.9C329.7 377.9 329.2 380.7 329 382.2C328.6 384.4 328 384.9 325.7 384.9C324.2 384.9 321.2 384.4 319 383.8C316.8 383.2 313.5 381.7 311.7 380.4C310 379 307.8 376.6 307 374.9C306.2 373.3 305.5 369.6 305.5 366.7C305.5 363.8 305.8 360 306.1 358.2C306.6 355.4 307.1 354.9 309.9 354.9Z" fill="white"/>
<path d="M209.4 344.9C209.702 344.902 211.901 346.801 214.1 349.2C216.4 351.5 219 354.9 219.9 356.7C220.8 358.5 221.5 361.6 221.5 363.7C221.5 366.1 220.5 369 218.6 371.9C217.1 374.4 214.5 377.7 210 382.1L206.1 378.8C203.9 376.9 201.1 373.2 199.8 370.4C198.6 367.701 197.5 364.4 197.5 363.2C197.5 362 198.2 359.4 199 357.4C199.8 355.5 202.4 351.9 204.6 349.4C206.9 347 209 344.9 209.4 344.9Z" fill="white"/>
<path d="M1574.7 148.1C1584 148.1 1591.5 148.4 1591.5 148.8C1591.5 149.3 1577 189.4 1559.4 238.1C1541.7 286.799 1525.6 330.199 1523.6 334.6C1521.6 339 1518.1 345.3 1515.8 348.6C1513.6 351.9 1509.3 356.9 1506.4 359.7C1503.4 362.5 1498.6 366 1495.7 367.4C1492.9 368.9 1487.7 370.8 1484.2 371.6C1480.5 372.5 1473.5 373 1467 373C1461 372.9 1453.7 372.4 1446 370.6L1445.7 356.3C1445.5 343.1 1445.6 342.1 1447.2 342.7C1448.2 343.1 1453.5 343.6 1459 343.9C1466.6 344.3 1470.2 344 1474 342.8C1476.7 341.9 1481 339.5 1483.4 337.4C1485.8 335.3 1489 331.3 1490.6 328.6C1492.1 325.8 1494.5 320.699 1498.4 310.6L1470.1 235.1C1454.5 193.6 1440.9 157 1439.7 153.8L1437.6 148.1L1471.7 148.6L1481.1 175.1C1486.3 189.699 1496 216.9 1502.6 235.6C1509.2 254.296 1515 269.894 1515.3 270.3C1515.7 270.7 1525.5 243.4 1558 148L1574.7 148.1Z" fill="white"/>
<path fill-rule="evenodd" clip-rule="evenodd" d="M1350.7 145.2C1354.2 144.7 1360.6 144.5 1365 144.8C1369.4 145.1 1375.5 145.9 1378.5 146.7C1381.5 147.5 1387.6 149.9 1392 152C1397.5 154.7 1402.5 158.2 1407.9 163.2C1412.2 167.3 1417.6 173.3 1419.8 176.6C1422.1 179.899 1425.3 185.7 1427.1 189.6C1428.8 193.499 1431.3 200.6 1432.6 205.6C1434.6 213.1 1434.9 217.1 1434.9 230.1C1434.9 242.999 1434.6 247 1432.7 253.8C1431.5 258.4 1429.3 264.9 1427.9 268.3C1426.4 271.8 1423.7 277.1 1421.8 280.1C1419.8 283.1 1416.2 288 1413.6 291C1411.1 294 1406.3 298.5 1403 300.9C1399.7 303.4 1393.8 306.9 1390 308.6C1386.2 310.4 1379.7 312.6 1375.7 313.5C1371.8 314.4 1365 315.1 1360.7 315.1C1356.4 315.1 1349.7 314.3 1345.5 313.2C1341.4 312.2 1335.3 310 1332 308.4C1328.7 306.7 1323.5 303.1 1320.5 300.4C1317.5 297.7 1313.4 293 1308 284.6L1307 369.6L1273.5 370.1V148.1H1306.5L1307 175.6L1308.9 172.1C1310 170.199 1313.3 166 1316.4 162.8C1319.5 159.6 1324 155.7 1326.5 154.1C1329 152.5 1334 150.1 1337.7 148.7C1341.5 147.2 1347.3 145.7 1350.7 145.2ZM1357 173.3C1351.9 173.1 1347 173.6 1343.5 174.5C1340.5 175.4 1335.6 177.5 1332.6 179.3C1329.7 181.1 1325 185 1322.3 188C1319.5 191 1315.8 196.6 1313.9 200.5C1312.1 204.4 1309.9 210.8 1309 214.7C1308.2 218.7 1307.5 225.7 1307.5 230.2C1307.5 235.1 1308.3 241.6 1309.4 246C1310.4 250.1 1312.7 256.4 1314.5 260C1316.3 263.6 1320.1 268.9 1322.9 271.9C1325.7 274.8 1329.6 278.3 1331.5 279.5C1333.4 280.7 1337.7 282.7 1341 283.9C1346.1 285.8 1348.5 286.1 1357 285.8C1366 285.4 1367.7 285 1373.5 282C1377.1 280.2 1382.3 276.4 1385.1 273.6C1388.3 270.3 1391.6 265.5 1394.3 260C1396.6 255.2 1399.1 248.2 1400 243.7C1400.8 239.5 1401.5 233.1 1401.5 229.5C1401.5 225.9 1400.8 219.5 1399.9 215.2C1399.1 211 1396.6 203.9 1394.5 199.5C1391.8 193.9 1388.8 189.8 1384.8 185.9C1381.2 182.3 1376.4 179 1372 176.9C1366.3 174.3 1363.5 173.6 1357 173.3Z" fill="white"/>
<path d="M156.5 335.2C157.3 335.4 158.8 337 159.7 339C160.6 340.9 161.7 344.2 162 346.4C162.4 348.6 162.4 352 161.9 353.9C161.5 355.9 160 358.8 158.6 360.4C157.199 362 153.3 364.5 150 366.1C145.3 368.299 143.7 368.6 142.7 367.7C142 367 140.8 364.4 139.9 361.9C139.1 359.5 138.5 355.1 138.5 352.2C138.5 347.7 139 346.4 141.7 343.3C143.5 341.3 147.2 338.6 150 337.3C152.7 336 155.7 335.1 156.5 335.2Z" fill="white"/>
<path d="M265.7 335.6C268.1 336.4 271.6 338.2 273.5 339.5C275.4 340.9 277.8 343.4 278.9 345.2C280.1 347.3 280.8 350.4 280.8 353.5C280.7 356.3 279.8 360.7 278.6 363.5C276.5 368.4 276.4 368.5 273.2 367.7C271.4 367.3 268.1 365.8 265.7 364.5C263.4 363.1 260.6 360.6 259.5 358.8C258.4 357 257.2 354 256.9 352C256.5 350.1 256.8 346.7 257.5 344.5C258.1 342.3 259.3 339.1 260.1 337.3L261.5 334.2L265.7 335.6Z" fill="white"/>
<path d="M190.4 304.2C191.301 304.401 193.4 306.8 195 309.5C196.7 312.3 198.4 316.1 198.7 318C199.1 320 199 323.1 198.5 325C197.9 327 195.7 330.2 193.3 332.6C190.9 334.8 187.7 337.4 186.2 338.3C183.5 340 183.5 340 181 336.8C179.7 335 177.9 331.8 177 329.8C176.2 327.7 175.5 324.1 175.5 321.8C175.4 319 176.2 316.3 177.7 314.1C179 312.2 182.001 309.1 184.4 307.3C186.8 305.4 189.5 304.1 190.4 304.2Z" fill="white"/>
<path d="M228.5 304C229.1 304 230.7 304.7 232.2 305.4C233.7 306.201 236.6 308.6 238.6 310.7C240.6 312.8 242.8 316.1 243.4 318C244.3 320.6 244.3 322.7 243.5 326C242.8 328.5 241.1 332.3 239.6 334.5C238.1 336.7 236.201 338.699 235.4 338.8C234.6 339 232 337.6 229.5 335.8C227 333.9 224 330.9 222.7 329C221.2 326.7 220.4 324.1 220.5 321.3C220.5 318.9 221.2 315.3 222.1 313.3C222.9 311.2 224.5 308.3 225.6 306.8C226.7 305.3 228 304 228.5 304Z" fill="white"/>
<path d="M113.5 310.3C113.5 313.2 113 317.3 112.4 319.5C111.7 321.7 109.7 325 107.9 326.8C105.4 329.2 103 330.3 98.7002 331.1C95.6002 331.7 91.4 331.9 86 330.9L86.5 323.7C86.9 319.3 87.8996 315.2 89.0996 313C90.2996 310.9 92.8 308.6 95.5 307.3C98.8 305.6 101.7 305 113.5 305V310.3Z" fill="white"/>
<path d="M306.5 304.9C307.3 304.4 310.7 304.2 314.2 304.5C317.7 304.8 321.7 305.7 323.2 306.4C324.7 307.2 326.7 308.7 327.7 309.7C328.6 310.7 330.1 313.2 330.9 315.3C331.8 317.3 332.5 321.7 332.5 331H325.7C320.6 331.1 317.9 330.5 314.6 328.8C311.6 327.3 309.6 325.2 308.2 322.5C307 320.3 305.9 315.7 305.6 312.2C305.1 307.3 305.3 305.7 306.5 304.9Z" fill="white"/>
<path d="M50.7002 304C52.8002 304 56.5002 304.5 63.5 306L62.9004 309.8C62.6004 311.8 61.7 315.3 61 317.5C60.2 319.7 58 323 56 324.8C54.1001 326.6 51.2002 328.3 49.7002 328.7C48.2002 329 44.1 329 40.5 328.7C36.9 328.3 33.5 327.6 33 327C32.3333 326.333 32.4332 324.067 33.2998 320.2C33.8998 317.1 35.4998 313.1 36.7998 311.3C37.9998 309.5 40.8 307.1 43 306C45.2 304.9 48.7002 304 50.7002 304Z" fill="white"/>
<path d="M367.5 304.1C372.7 304 374.7 304.4 377.4 306.2C379.3 307.5 381.9 310.6 383.2 313C384.4 315.5 385.8 319.6 387 326.8L381 328C377.7 328.7 373.1 329 370.7 328.6C368.4 328.3 365.2 327 363.7 325.7C362.2 324.4 360 321.1 358.9 318.4C357.7 315.7 356.4 311.8 356.1 309.8C355.5 306.3 355.7 305.9 358.2 305.1C359.7 304.6 363.9 304.1 367.5 304.1Z" fill="white"/>
<path d="M153.7 289.1C154.8 289.1 155.9 290.2 156.6 291.8C157.1 293.3 157.7 297.2 157.7 300.5C157.7 304.2 157.1 307.8 156.1 309.8C155.2 311.6 153.2 313.9 151.7 315C150.2 316 146.1 317.6 142.5 318.5C138.9 319.4 135.7 319.8 135.3 319.3C134.9 318.899 134.1 316.1 133.5 313C132.9 310 132.7 306.2 133.1 304.5C133.4 302.9 134.3 300.3 135.1 298.8C135.9 297.3 137.9 295 139.7 293.8C141.5 292.6 145 291 147.5 290.4C150 289.7 152.8 289.1 153.7 289.1Z" fill="white"/>
<path d="M262.5 291.6C263.7 288.9 264 288.8 268.1 289.4C270.5 289.7 273.9 290.8 275.7 291.6C277.5 292.5 280.2 294.4 281.8 295.9C283.3 297.3 285 300.3 285.6 302.5C286.2 304.7 286.3 308.8 286 311.5C285.6 314.3 284.9 317.2 284.4 318C283.8 319.2 282.6 319.4 278.3 318.7C275.4 318.2 271.9 317.2 270.5 316.5C269.1 315.8 266.6 313.8 265 312C262.3 309.2 261.9 308.1 261.7 301.7C261.5 297.5 261.8 293.3 262.5 291.6Z" fill="white"/>
<path d="M623 86.0996C627.4 85.6996 633 85.5002 635.5 85.7002C638 85.9002 642.9 86.2996 646.5 86.5996C650.1 86.8996 656.8 88.0002 661.5 89.2002C666.2 90.3002 673.6 92.9 678 95C682.4 97 688.7 100.6 692 102.8C695.3 105.1 700.4 109.3 703.4 112.3C706.4 115.2 710.8 120.3 713.3 123.6C715.7 126.899 719.3 132.7 721.3 136.6C723.2 140.5 725.9 146.7 727.2 150.6C728.499 154.497 729.499 157.696 729.5 157.8C729.5 158 721.4 158.1 693.5 158.1L692.5 154.8C692 153.1 689.3 148.199 686.6 144.1C684 140 679.5 134.6 676.8 132.1C674.1 129.6 669.9 126.4 667.5 124.9C665 123.5 659.4 121.1 655 119.6C649.5 117.7 644 116.7 637.5 116.4C630.8 116 625.5 116.3 619.5 117.5C614.3 118.5 607.7 120.8 602.5 123.3C595.7 126.6 592.3 129.1 585.5 136C578.7 142.8 575.9 146.5 572.3 153.6C569.8 158.5 566.5 166.4 565.1 171.1C563.7 175.8 562 184.5 561.3 190.6C560.4 199.099 560.4 203.9 561.4 211.6C562 217.099 563.5 224.999 564.6 229.1C565.7 233.199 568.4 240.2 570.6 244.6C572.7 249 576.8 255.6 579.7 259.2C582.6 262.9 587.2 267.7 590 270C592.7 272.4 598.1 275.8 602 277.8C605.9 279.7 612.4 282.2 616.5 283.2C621.2 284.4 627.4 285.1 633 285.1C638 285.1 645.1 284.4 649 283.6C652.9 282.8 659.1 280.6 663 278.7C666.9 276.8 672.7 272.9 675.9 270C679.2 267 684 261.2 686.7 257.1C689.4 253 692 248.099 693.5 243.1H729.5L728.9 245.3C728.5 246.6 727 251 725.5 255.1C724.1 259.199 721 265.7 718.7 269.6C716.5 273.499 712.2 279.5 709.2 283.1C706.3 286.7 700.1 292.5 695.4 296C690.8 299.5 683.9 303.8 680 305.6C676.1 307.5 669 310.1 664 311.6C659 313 650.3 314.6 644.5 315.3C636.7 316.1 631.2 316.1 623 315.3C617 314.7 608.4 313.2 604 312.1C599.6 310.9 592.9 308.5 589 306.7C585.1 304.9 579.5 301.9 576.5 299.9C573.5 298 568.1 293.9 564.5 290.9C560.9 287.8 555.7 282.5 553 279C550.2 275.5 546.7 270.6 545.1 268.1C543.5 265.599 540.5 259.999 538.3 255.6C536.2 251.2 533.3 243.999 532 239.6C530.7 235.2 528.9 227.599 528 222.6C527.2 217.599 526.5 207.799 526.5 200.6C526.5 193.5 527.2 183.5 528 178.6C528.8 173.6 530.8 165.299 532.5 160.1C534.2 154.9 537.6 146.8 540.1 142.1C542.5 137.4 546.7 130.7 549.4 127.1C552.101 123.5 558.1 116.999 562.7 112.6C567.4 108.2 574.7 102.5 579.1 100C583.4 97.4 590.6 93.9998 595 92.2998C599.4 90.6998 605.7 88.6996 609 88.0996C612.3 87.3996 618.6 86.4996 623 86.0996Z" fill="white"/>
<path fill-rule="evenodd" clip-rule="evenodd" d="M822.2 144.2C824 144.2 829.9 144.6 835.2 145.2C840.6 145.8 848.4 147.3 852.5 148.6C856.6 149.9 862.7 152.7 866 154.9C869.3 157 874.4 161.4 877.4 164.7C880.4 168 884.1 173.5 885.8 177.1C887.4 180.7 889.3 186.9 890.1 190.8C891.2 196.5 891.5 210.5 891.5 311.1H858.5L858 288.6L856.2 291.8C855.3 293.6 852.2 297.3 849.5 300.1C846.5 303.1 841.5 306.5 837.2 308.6C833.3 310.5 826.6 312.8 822.5 313.7C817 314.9 812 315.2 804 314.8C797.9 314.5 790.5 313.5 787.5 312.5C784.5 311.6 779.3 309.5 776 307.8C772.7 306.2 767.5 302.3 764.4 299.2C761 295.8 757.6 291.1 755.8 287.1C754.1 283.5 752.2 278.2 751.6 275.3C751 272.5 750.5 267.5 750.5 264.3C750.5 261.2 750.9 256.1 751.5 253.1C752.1 250.1 753.7 245.2 755 242.3C756.4 239.5 759.6 234.8 762.2 232C764.9 229.2 769.5 225.4 772.5 223.6C775.5 221.8 780.9 219.3 784.5 218.1C788.1 216.9 794.1 215.3 798 214.6C801.8 213.8 816.8 212.4 857.5 209.6V202.6C857.5 198.6 856.8 193.3 855.8 190.2C854.8 187.1 852.3 182.9 850 180.3C847.8 177.8 844.4 175 842.5 174.1C840.6 173.1 836.3 171.8 833 171.1C829.3 170.3 824.3 170.1 820 170.5C815.7 170.9 810.7 172.2 807.1 173.9C803.8 175.4 799.4 178.5 797 181.1C794.7 183.6 792 187.9 789 196.1H772.7C757.8 196.1 756.5 196 756.9 194.3C757.2 193.399 758 190.099 758.9 187.1C759.701 184.1 762.1 178.7 764.2 175.2C766.3 171.7 771 166 774.7 162.5C778.6 158.9 784.4 154.6 788.2 152.7C792 150.8 797.5 148.6 800.5 147.7C803.5 146.8 808.9 145.7 812.5 145.2C816.1 144.7 820.5 144.3 822.2 144.2ZM857.5 233C847 233.2 836.8 233.8 828 234.5C819.2 235.2 809.9 236.3 807.2 236.9C804.6 237.5 800.4 239.1 797.8 240.4C795.1 241.7 791.6 244 790 245.6C788.3 247.2 786.1 250.5 785.1 253C783.8 256.4 783.4 259.3 783.7 265C784 270.8 784.7 273.6 786.8 277.2C788.3 279.9 791.4 283.4 793.8 285.1C796.1 286.7 800.5 288.8 803.5 289.7C807.4 290.8 811.6 291.1 818 290.8C823.6 290.5 829 289.5 832.5 288.2C835.6 287 840.4 284 843.5 281.2C846.5 278.5 850.2 274.1 851.7 271.4C853.2 268.7 855.1 263.8 855.9 260.5C856.9 256.8 857.5 250.3 857.5 243.7V233Z" fill="white"/>
<path fill-rule="evenodd" clip-rule="evenodd" d="M1157.5 145.2C1161.1 144.7 1168 144.5 1173 144.8C1177.9 145.1 1185.4 146.2 1189.5 147.2C1193.6 148.2 1200.6 150.9 1205 153C1209.4 155.2 1216.2 159.6 1220 162.8C1223.8 166 1229.4 171.8 1232.2 175.6C1235.1 179.5 1239 185.7 1240.9 189.6C1242.8 193.4 1245.2 199.7 1246.4 203.6C1247.5 207.4 1248.9 214.9 1249.5 220.1C1250.3 226.799 1250.3 232.4 1249.5 239.1C1248.9 244.299 1247.7 251.299 1246.8 254.6C1245.9 257.9 1243.7 264 1241.8 268.1C1239.9 272.2 1236.4 278.3 1234.1 281.6C1231.7 284.9 1226.4 290.7 1222.4 294.6C1217 299.7 1212.3 302.9 1205.5 306.3C1200.3 308.9 1193.1 311.8 1189.5 312.7C1184.8 314 1179.1 314.5 1169 314.5C1158.6 314.6 1153.3 314.1 1148.5 312.8C1144.9 311.8 1138.8 309.6 1135 307.8C1131.2 306 1125.7 302.9 1123 301.1C1120.2 299.2 1115.3 294.9 1112 291.6C1108.7 288.3 1103.8 282.2 1101.3 278.1C1098.7 274 1095.2 266.9 1093.5 262.3C1091.9 257.8 1089.8 249.9 1088.9 244.8C1087.7 238.3 1087.4 232.5 1087.8 225.1C1088.1 219.3 1089.3 211 1090.5 206.6C1091.6 202.2 1094.1 195.199 1096.1 191.1C1098.1 187 1101.6 180.9 1103.9 177.6C1106.3 174.3 1111.3 168.699 1115.2 165.1C1119.2 161.3 1125.5 156.9 1130.1 154.4C1134.4 152.1 1140.9 149.3 1144.5 148.2C1148.1 147 1153.9 145.7 1157.5 145.2ZM1170.5 173.2C1163.4 173.1 1159.6 173.5 1155.5 174.8C1152.5 175.8 1148.2 177.8 1146 179.2C1143.8 180.6 1139.6 184.4 1136.6 187.6C1133.7 190.8 1129.8 196.6 1127.9 200.5C1126.1 204.3 1123.9 210.8 1123 214.7C1122.2 218.7 1121.5 225.7 1121.5 230.2C1121.5 235.4 1122.3 241.5 1123.5 246.5C1124.7 250.9 1127.3 257.6 1129.3 261.5C1131.3 265.3 1135.4 270.8 1138.2 273.7C1141.4 276.9 1146.2 280.3 1150.2 282.2C1156.7 285.4 1157.5 285.5 1169 285.5C1180.7 285.5 1181.2 285.4 1187.9 282C1192.5 279.7 1196.7 276.4 1200.6 272.2C1203.9 268.8 1207.8 263.2 1209.4 259.7C1211.1 256.3 1213.1 250.8 1214 247.5C1214.9 244.2 1215.8 237.9 1216.2 233.5C1216.6 228.1 1216.2 222.8 1215.1 217C1214.2 212 1211.9 205.2 1209.7 200.5C1207.4 195.8 1203.6 190.1 1200.4 186.6C1196.6 182.5 1192.8 179.7 1187.5 177.1C1180.8 173.8 1179.2 173.5 1170.5 173.2Z" fill="white"/>
<path d="M996.5 145.1C999.5 144.6 1005.6 144.4 1010 144.7C1014.4 144.9 1020.6 145.8 1023.7 146.6C1026.9 147.4 1032.3 149.5 1035.7 151.2C1039.5 153.1 1044.4 156.9 1048 160.5C1051.7 164.3 1055.3 169.3 1057.4 173.6C1059.3 177.5 1061.8 183.7 1062.9 187.6C1064.8 194.2 1064.9 197.8 1065.5 311.1H1031.5L1031.2 255.8C1031 201.7 1031 200.5 1028.8 195.1C1027.6 192.1 1024.6 187.299 1022.2 184.6C1019.5 181.5 1015.8 178.6 1012.4 177.1C1007.8 175 1005.6 174.6 997 174.6C988.2 174.6 986.3 175 981 177.4C977.7 178.9 973 182.1 970.7 184.4C968.3 186.7 965.2 190.8 963.8 193.6C962.4 196.299 960.6 201.5 959.9 205.1C958.9 210.1 958.5 223.3 958.5 311.1H924.5L925 148.6L957.5 148.1L958 172.6L960.6 168.1C962.1 165.6 965.1 161.7 967.4 159.3C969.6 157 973.4 153.9 975.7 152.4C978.1 151 982.5 148.9 985.5 147.9C988.5 146.9 993.5 145.6 996.5 145.1Z" fill="white"/>
<path fill-rule="evenodd" clip-rule="evenodd" d="M210.5 128.5C217.8 128.7 225.5 129.5 229 130.5C232.3 131.4 239.3 134.2 244.5 136.8C252.6 140.8 255.4 142.9 263.5 151.1C268.7 156.299 274.6 163.299 276.5 166.6C278.4 169.899 281 175.5 282.3 179.1C283.6 182.7 285.3 188.9 286.1 192.8C286.9 196.8 287.5 202.9 287.5 206.3C287.5 209.8 287 215.5 286.4 219.1C285.9 222.699 284.3 229 282.9 233.1C281.5 237.2 278.4 243.7 276 247.6C273.6 251.5 269 257.5 265.8 261C262.6 264.5 256.8 269.5 253 272C249.1 274.6 242.6 278.1 238.5 279.8C234.4 281.6 226.9 283.7 222 284.5C217 285.4 211 286.1 208.5 286.1C206 286.1 200.1 285.4 195.2 284.6C190.4 283.8 183.5 281.9 179.7 280.5C176 279.1 169.4 275.6 165 272.7C160.6 269.8 154.1 264.3 150.6 260.5C147.2 256.7 142.5 250.7 140.4 247.1C138.3 243.5 135.1 236.3 133.3 231.1C130.3 222.3 130.1 220.599 130.1 207.6C130 197.4 130.5 191.9 131.7 187.1C132.7 183.499 135.5 176.499 138 171.6C140.5 166.6 144.9 159.8 147.8 156.4C150.6 153 155.7 148.1 159 145.4C162.3 142.8 168.2 139 172 137C175.9 135 181.2 132.6 184 131.7C186.7 130.8 191 129.7 193.5 129.1C196 128.6 203.6 128.4 210.5 128.5ZM208 154.1C204.1 154.1 198.5 154.8 195.5 155.6C192.5 156.4 187.5 158.3 184.5 159.7C181.5 161.2 176.1 165.2 172.5 168.6C168.4 172.499 164.701 177.2 162.301 181.6C160.301 185.4 157.9 191.6 157 195.5C155.8 200.4 155.5 204.7 155.9 210C156.2 214.1 157.2 220 158.2 223C159.2 226 161.4 230.7 163 233.5C164.6 236.2 167.9 240.7 170.4 243.3C172.9 246 177 249.499 179.5 251.1C182 252.7 187.4 255.2 191.5 256.6C197.7 258.9 200.6 259.3 208.5 259.3C215.3 259.2 219.8 258.6 224.5 257.1C228.1 255.9 233.9 253.1 237.4 250.7C240.9 248.4 245.8 244.2 248.2 241.5C250.5 238.7 253.901 233.6 255.601 230C257.401 226.4 259.501 220.1 260.301 216C261.601 209.7 261.601 207.1 260.601 200C259.701 193.8 258.3 189.3 255.5 183.5C252.7 177.7 249.801 173.8 245.301 169.4C241.801 166 236.2 161.9 232.7 160.1C229.3 158.4 223.9 156.3 220.7 155.5C217.6 154.7 211.9 154 208 154.1Z" fill="white"/>
<path d="M108.5 262.2C112.2 260.3 114 260 119 260.4C122.3 260.7 125.8 261.2 126.7 261.5C127.9 261.8 128.5 263.1 128.5 265.3C128.5 267.1 128 270.1 127.4 272C126.7 274 125.1 277 123.8 278.8C122.5 280.6 120.1 282.7 118.5 283.5C116.8 284.4 113 285 109.7 284.9C106.6 284.9 102.9 284.5 101.5 284.1C99.3001 283.5 99 282.9 99 279C99 276.3 100 272.6 101.5 269.5C103.4 265.7 105.1 264 108.5 262.2Z" fill="white"/>
<path d="M302 260.1C306.7 260 308.7 260.5 311.5 262.3C313.4 263.6 316 266.4 317.2 268.6C318.4 270.7 319.8 274.9 320.2 277.7C321 282.9 321 282.9 318 283.7C316.3 284.2 312.1 284.5 308.5 284.5C303.5 284.5 301.3 284 299 282.4C297.3 281.3 294.9 278.1 293.5 275.4C292.1 272.5 291.1 268.7 291 266.1C291 262.2 291.3 261.6 293.5 260.9C294.9 260.5 298.7 260.2 302 260.1Z" fill="white"/>
<path d="M67.7002 256C70.3002 256 75.0001 256.9 78 258C80.9997 259.1 83.4996 260.6 83.5 261.3C83.5 262 82.5996 264.3 81.5996 266.5C80.5996 268.7 78.5004 272 76.9004 273.9C75.3004 275.8 72.6 278 71 278.8C69 279.8 66.4 280.1 63 279.8C60.2 279.5 55.9996 278.4 53.5996 277.4C49.5998 275.7 49.3004 275.3 49.9004 272.5C50.2004 270.9 51.7998 267.5 53.2998 265C54.7998 262.6 57.6 259.5 59.5 258.3C61.8 256.7 64.3002 256 67.7002 256Z" fill="white"/>
<path d="M351.2 255.1C352.5 255.1 354.9 255.6 356.7 256.4C358.5 257.2 361.2 259.1 362.7 260.7C364.2 262.2 366.3 265.8 367.5 268.5C368.7 271.3 369.4 274.1 369.1 274.8C368.7 275.5 365.4 277 361.7 278.1C357.3 279.4 353.8 279.9 351.5 279.5C349.6 279.1 346.5 277.8 344.7 276.4C342.9 275.1 340.4 271.9 339.1 269.3C337.8 266.7 336.4 263.6 336.1 262.5C335.5 260.9 336.2 260.2 340.2 258.4C342.8 257.2 345.9 256 347 255.7C348.1 255.5 350 255.2 351.2 255.1Z" fill="white"/>
<path d="M20.5 235.3C24.6 235.5 27.3002 236.4 31.2002 238.8C34.0999 240.6 36.4996 242.6 36.5 243.3C36.5 244 34.8002 246.8 32.7002 249.5C30.7002 252.2 27.4 255.3 25.5 256.4C23.5 257.5 20.1999 258.4 18 258.4C15.8 258.3 12 257.3 9.5 256.2C7 255 3.9 253.1 0 250L2.90039 245.8C4.60037 243.4 6.90025 240.4 8.2002 239.1C9.40024 237.8 11.5003 236.4 12.7002 235.9C14.0002 235.4 17.5 235.2 20.5 235.3Z" fill="white"/>
<path d="M399.7 234.1C401.2 234.1 404.2 234.9 406.2 235.9C408.3 236.9 411.4 239.5 413.1 241.6C414.8 243.799 416.7 246.5 417.3 247.8C418.4 249.8 418.1 250.3 414.2 252.9C411.9 254.5 408 256.4 405.5 257.1C403 257.8 399.4 258.1 397.5 257.7C395.3 257.3 392.4 255.6 389.7 253.1C387.4 250.8 384.8 247.6 383.9 245.8C382.2 242.5 382.2 242.5 385.6 239.8C387.5 238.2 390.8 236.4 393 235.6C395.2 234.8 398.2 234.1 399.7 234.1Z" fill="white"/>
<path d="M97 219C98.6 219 102.7 220.3 106 221.9C109.3 223.5 112.5 225.6 113.2 226.4C114.3 227.8 114 228.8 111.5 232.5C109.8 235 106.8 238.2 104.7 239.7C102.7 241.2 99.2 242.6 97 242.9C94.1 243.2 91.3999 242.6 87.5 240.7C84.5 239.3 81.1 237.4 80 236.6C78.2002 235.2 78.1002 234.7 79.2002 232.5C79.9002 231.2 82.2003 228.2 84.2002 225.9C86.3001 223.6 89.3 221.1 91 220.4C92.6 219.7 95.3 219.1 97 219Z" fill="white"/>
<path d="M322.5 219.1C325.8 219.1 328 219.8 330.8 221.8C333 223.3 336 226.6 337.6 229C339.199 231.5 340.5 233.899 340.5 234.3C340.5 234.7 338.3 236.4 335.7 238.1C333.1 239.7 329.2 241.6 327 242.1C324.8 242.7 321.9 242.9 320.5 242.5C319.1 242.2 316.3 240.8 314.2 239.5C312.2 238.1 309.1 234.9 307.5 232.3C304.6 227.7 304.6 227.4 306.2 225.6C307.2 224.6 310.2 222.7 313 221.4C315.9 220 319.8 219 322.5 219.1Z" fill="white"/>
<path d="M54.2002 197.1C56.6002 197 59.8 197.7 61.5 198.5C63.1 199.4 66.3 201.7 68.5 203.8C70.7998 205.8 72.5997 208.1 72.5 208.8C72.5 209.5 70.3001 211.9 67.7002 214.3C64.8003 216.9 61.2003 219 58.4004 219.7C55.5004 220.4 52.8 220.5 50.5 219.9C48.6 219.4 46.3 218.5 45.5 217.8C44.6999 217.2 42.3001 215 40.2002 213.1C38.1002 211.1 36.5 209.1 36.5 208.5C36.5 208 38.1002 205.9 40.2002 203.9C42.3002 201.9 45.3 199.5 47 198.7C48.6 197.8 51.9002 197.1 54.2002 197.1Z" fill="white"/>
<path d="M364.5 196.1C365.9 196.1 368.8 196.9 371 197.9C373.2 199 376.7 201.5 382.7 207.5L380.8 210.4C379.8 212 377 214.7 374.5 216.3C372 218 368.4 219.6 366.5 219.8C364.6 220.1 361.4 219.8 359.5 219.2C357.6 218.6 353.8 216.3 351.2 214.1C348.6 211.8 346.5 209.2 346.5 208.3C346.5 207.3 348.2 204.999 350.3 203.1C352.3 201.2 355.8 198.9 358 197.9C360.2 196.9 363.1 196.1 364.5 196.1Z" fill="white"/>
<path d="M95.7002 174.1C97.2003 174.1 100.2 174.9 102.2 175.9C104.3 176.9 107.3 179.3 108.9 181.1C110.4 182.999 112.3 185.8 113.1 187.3C114.4 189.9 114.4 190.1 110.2 192.9C107.9 194.5 104 196.4 101.5 197.1C99.0001 197.8 95.3002 198 93.2002 197.7C90.6002 197.2 88.2001 195.7 85.2002 192.7C82.9002 190.3 80.3 187.1 79.5 185.6C78.0002 182.9 78.1003 182.7 81.5 179.9C83.4 178.3 86.8 176.4 89 175.6C91.2 174.8 94.2002 174.1 95.7002 174.1Z" fill="white"/>
<path d="M323.2 174.1C325.9 174 329.2 174.9 332.2 176.5C334.8 177.9 337.9 179.7 339 180.5C340.8 181.9 340.9 182.2 339.5 184.6C338.7 186.1 336.6 188.9 334.9 190.9C333.2 192.9 330 195.3 327.7 196.3C324.8 197.5 322.3 197.8 319.7 197.4C317.7 197 314.4 195.9 312.5 194.9C310.6 193.9 307.9 192.3 306.6 191.3C304.4 189.6 304.4 189.4 305.8 186.5C306.6 184.9 308.8 181.8 310.7 179.7C312.6 177.6 315.2 175.5 316.6 175C317.9 174.5 320.9 174.1 323.2 174.1Z" fill="white"/>
<path d="M18.5 159.1C21.7999 159.1 23.9999 159.8 26.7998 161.8C28.9997 163.3 31.9996 166.6 33.5996 169C35.1994 171.5 36.4996 173.899 36.5 174.3C36.5 174.7 34.3001 176.4 31.7002 178.1C29.1002 179.7 25.2 181.6 23 182.1C20.8 182.7 17.9 182.9 16.5 182.6C15.1 182.3 12.1001 180.7 9.7002 179C7.40022 177.4 4.20022 174 2.7002 171.5C0.000280857 167 0.000190377 166.9 2 165.4C3.1 164.6 6.2 162.8 9 161.5C12 160 15.7 159 18.5 159.1Z" fill="white"/>
<path d="M400 158.1C401.1 158.1 403.6 158.5 405.5 159C407.4 159.5 411.1 161.4 418.4 166.5L416.3 170C415.2 172 413.1 174.8 411.6 176.4C410.2 177.9 407.7 179.8 406.2 180.6C404.7 181.4 401.6 182 399.2 182C396.9 182 393.2 181.1 391 180C388.8 178.9 385.9 177.2 384.6 176.3C382.8 174.9 382.4 174 383.1 172C383.5 170.7 385.7 167.5 387.9 165.1C390.1 162.7 393.3 160.1 395 159.4C396.6 158.7 398.9 158.1 400 158.1Z" fill="white"/>
<path d="M64.2002 137.2C66.0002 137.1 68.7002 137.6 70.2002 138.2C71.8002 138.8 74.1005 140.2 75.4004 141.4C76.7004 142.601 78.9998 146.3 80.5996 149.6C82.7996 154.3 83.2002 155.9 82.2002 156.9C81.5 157.6 78.9999 158.8 76.5 159.7C74 160.5 69.6002 161.1 66.7002 161.1C62.2002 161.1 61.0002 160.6 57.7002 157.8C55.7002 155.9 53.0002 152 51.7002 149C50.4002 146 49.6004 143 49.9004 142.3C50.2012 141.7 52.9007 140.2 55.7002 139.2C58.6002 138.1 62.5002 137.2 64.2002 137.2Z" fill="white"/>
<path d="M353.7 137.1C356.4 137.1 361 138 364 139.1C367 140.199 369.499 141.7 369.5 142.3C369.5 143 368.5 145.6 367.4 148.1C366.3 150.6 364.2 153.9 362.7 155.4C361.2 157 358.8 158.9 357.2 159.7C355.7 160.5 352.9 161.1 351 161.1C349.1 161.1 345.4 160.4 342.7 159.5C340.1 158.6 337.3 157.3 336.5 156.6C335.2 155.4 335.2 154.7 336.8 150.9C337.9 148.5 339.6 145.3 340.8 143.8C342 142.2 344.3 140 346 139C347.8 137.8 350.8 137.1 353.7 137.1Z" fill="white"/>
<path d="M100.7 133.1C102.5 132.6 106.9 132.3 110.5 132.4C115.2 132.6 117.8 133.2 120 134.7C121.6 135.8 124.1 139 125.4 141.7C126.8 144.4 128.1 148.501 129 154.9L124.5 156.1C122 156.8 117.7 157.1 114.8 157C111.7 156.7 108.6 155.8 106.8 154.6C105.3 153.399 102.8 150.099 101.3 147.1C99.8999 144.1 98.3996 139.9 98.0996 137.8C97.4997 134.3 97.7003 134.1 100.7 133.1Z" fill="white"/>
<path d="M304.2 132.3C306.3 131.9 310.2 131.8 313 132.1C315.7 132.5 318.6 133.1 319.2 133.4C319.9 133.801 320.5 134.9 320.5 135.8C320.5 136.8 319.8 140 319 142.8C318.2 145.8 316.1 149.7 314.2 151.6C311.9 154.2 309.7 155.5 306 156.2C302.2 157 299.7 157 290 154.6L290.3 150.6C290.5 148.4 291.7 144.299 293 141.6C294.3 138.8 296.5 135.8 297.9 134.8C299.301 133.9 302.2 132.7 304.2 132.3Z" fill="white"/>
<path d="M134.2 98.7002C134.7 97.3002 135.6 97.0996 138.9 97.5996C141.2 97.9996 144.6 98.9998 146.5 99.7998C148.4 100.6 151.1 102.2 152.3 103.4C153.6 104.6 155.3 106.8 156.1 108.3C156.9 109.9 157.5 113.2 157.5 115.8C157.5 118.5 157 122.3 156.5 124.3C155.8 126.9 154.9 128.099 153.7 128.1C152.8 128.1 149.6 127.4 146.7 126.6C143.8 125.8 139.9 123.7 137.9 121.8C136 120.1 133.9 117 133.3 115.1C132.7 113.099 132.5 109.2 132.9 106C133.2 102.9 133.8 99.7003 134.2 98.7002Z" fill="white"/>
<path d="M281.2 97.0996C282.7 97.0997 283.8 97.9999 284.5 99.5996C285 101 285.5 104.9 285.5 108.3C285.5 112.5 284.866 115.766 283.6 118.1C282.4 120.5 280.1 122.4 276.4 124.3C273.4 125.7 269.1 127.2 262.5 128.1L261.4 122.3C260.8 119.2 260.6 114.7 260.9 112.3C261.3 109.5 262.567 106.9 264.7 104.5C266.8 102.3 270 100.3 273.5 99.0996C276.5 97.9996 280 97.1996 281.2 97.0996Z" fill="white"/>
<path d="M183.3 77.0996C183.7 77.0996 186.2 78.8004 189 80.9004C191.7 82.9003 195 86.1996 196.2 88.0996C197.7 90.2995 198.5 92.9997 198.5 95.5996C198.5 97.7995 197.4 101.8 196 104.6C194.7 107.3 192.9 110.5 190.5 113.6L186.9 111.6C184.9 110.5 181.5 107.7 179.4 105.3C176.9 102.7 175.3 99.6998 174.9 97.2998C174.5 95.2998 174.7 91.9996 175.3 90.0996C175.9 88.1995 177.8 84.4997 179.5 81.7998C181.3 79.2004 182.999 77.1005 183.3 77.0996Z" fill="white"/>
<path d="M35.5 89.2002C37.4 88.6002 41.8002 88.3004 45.2002 88.4004C49.6001 88.5004 52.1002 89.2002 54.2002 90.7002C55.7002 91.8003 58.0003 94.5003 59.2002 96.7002C60.5002 98.8003 61.8 102.901 63 110.9L58.5 112.1C56 112.8 51.6998 113.1 48.7998 113C45.6999 112.7 42.5998 111.8 40.7998 110.5C39.2998 109.4 36.8996 106.3 35.5996 103.5C34.1997 100.8 32.8997 96.7004 32.5996 94.4004C31.9996 90.4004 32.1 90.2002 35.5 89.2002Z" fill="white"/>
<path d="M230.2 80C234.6 77.2001 234.9 77.2004 236.7 78.9004C237.8 79.8006 239.7 82.8 241.1 85.5996C242.5 88.4994 243.5 92.2996 243.5 94.5996C243.5 96.8996 242.5 100.3 241.1 102.6C239.8 104.8 236.6 108.1 233.9 109.9C231.2 111.7 228.6 113 228 112.8C227.4 112.6 225.8 110.7 224.3 108.5C222.8 106.4 221.1 102.8 220.5 100.6C219.8 98.3996 219.6 94.9995 219.9 93.0996C220.3 91.1997 221.7 88.1001 223.1 86.2002C224.4 84.4002 227.6 81.6 230.2 80Z" fill="white"/>
<path d="M364.6 90.2998C367.6 88.1998 368.9 87.8998 376.2 88.2998C380.7 88.3998 384.899 88.9997 385.5 89.5996C386.3 90.2996 386.3 92.0998 385.6 96.0996C385 99.0996 383.5 103.1 382.3 105C381 106.9 378.4 109.4 376.5 110.5C374.3 111.8 371.2 112.5 368 112.5C365.2 112.6 361.3 112.2 355.5 111.1L356.1 106.3C356.4 103.7 357.6 99.5996 358.9 97.0996C360.1 94.5998 362.7 91.4998 364.6 90.2998Z" fill="white"/>
<path d="M88 85.7002C89.1 85.5002 92.5 85.4998 95.5 85.7998C98.5 86.0998 102.7 87.3004 104.7 88.4004C106.8 89.6004 109.4 92.1997 110.5 94.0996C111.5 95.9995 112.7 100.3 113 103.6C113.4 107.099 113.2 110.199 112.6 111.1C111.9 112.2 110 112.5 105.8 112.4C102.6 112.3 98.6 111.7 97 111.2C95.4 110.6 92.7998 108.9 91.2998 107.4C89.7998 105.8 88.0996 103.4 87.5996 101.8C86.9997 100.3 86.3998 96.1999 86.2998 92.7002C85.9998 87.0002 86.2 86.2002 88 85.7002Z" fill="white"/>
<path d="M317 86.5996C319.2 85.7996 323.5 85.1996 332 85.5996L332.3 90.0996C332.5 92.5996 332.2 96.4998 331.6 98.7998C331 101.2 329.2 104.6 327.6 106.3C326.1 108.1 323 110.2 320.9 110.8C318.8 111.5 314.4 112.1 305.5 112.1V105.6C305.5 102 306.1 97.5997 306.9 95.7998C307.6 94.1 309.3 91.6005 310.6 90.4004C311.9 89.1004 314.8 87.3996 317 86.5996Z" fill="white"/>
<path d="M274.8 48.0996C275.2 48.0996 276.6 50.4999 278 53.2998C279.4 56.3997 280.5 60.3998 280.5 62.7998C280.5 65.1998 279.7 68.6998 278.8 70.7998C277.8 72.7997 275.2 75.5996 273 77.0996C270.8 78.5996 267.4 80.3 265.5 81C263.6 81.6 261.7 82.0996 261.3 82.0996C260.8 82.099 259.6 79.5992 258.5 76.5996C257.4 73.5996 256.5 69.2995 256.5 67.0996C256.5 64.8997 256.9 62.0997 257.4 60.7998C257.901 59.5998 259.6 57.3001 261.1 55.7002C262.7 54.1002 266.3 51.8 269 50.5C271.8 49.2002 274.299 48.0999 274.8 48.0996Z" fill="white"/>
<path d="M140.7 52.2998C142.3 48.6001 142.9 48.1003 144.8 48.7002C146 49.0002 148.4 50.0004 150 50.9004C151.6 51.7004 154.2 53.2002 155.8 54.2002C157.3 55.3001 159.2 57.5998 160.1 59.2998C161 61.0997 161.8 64.3996 161.8 66.5996C161.8 68.7996 161.1 72.9998 160.2 75.7998C159.2 78.6998 157.9 81.4002 157.3 81.7002C156.6 82.0001 154.4 81.8001 152.5 81.2002C150.6 80.5002 147.3 78.7998 145.2 77.2998C143 75.6998 140.5 72.6996 139.3 70.0996C137.7 66.4999 137.4 64.6995 138 61.0996C138.4 58.5996 139.6 54.6997 140.7 52.2998Z" fill="white"/>
<path d="M204.8 38.9004C207.7 35.9005 209 35.3001 210.3 36C211.2 36.5 213.2 38.1999 214.6 39.7998C216.1 41.2997 218.1 44.1996 219 46.0996C220 47.9995 220.8 51.3996 220.8 53.5996C220.8 55.7995 220.1 59.0997 219.2 60.7998C218.2 62.5998 215.7 65.9997 209.5 72.5996L205 68.0996C202.5 65.5996 199.8 62.0998 199 60.2998C198.2 58.5998 197.5 55.4996 197.5 53.5996C197.5 51.6997 198.3 48.4003 199.3 46.4004C200.2 44.4005 202.7 41.0004 204.8 38.9004Z" fill="white"/>
<path d="M320.3 32.2002C322.3 31.7002 324.9 31.3004 326 31.4004C327.1 31.5004 328.2 32.5999 328.6 34.0996C329 35.4996 329.3 39.2997 329.4 42.5996C329.5 46.5994 328.9 49.7996 327.7 52.0996C326.4 54.4995 324.2 56.3999 320.4 58.2998C317.4 59.7998 313.1 61.3996 306.7 62.5996L305.5 56.5996C304.8 53.2996 304.6 48.6997 304.9 46.2998C305.3 43.7999 306.6 40.8999 308.3 39C309.8 37.2001 312.2 35.2001 313.8 34.5C315.3 33.7 318.2 32.7002 320.3 32.2002Z" fill="white"/>
<path d="M89.5996 35.5996C90.5995 31.3 90.7 31.2002 93.7998 31.7002C95.5998 32.1002 98.6998 32.7002 100.8 33.2002C102.8 33.7002 106 35.4004 107.8 36.9004C109.5 38.5004 111.6 41.3002 112.4 43.2002C113.4 45.6001 113.7 48.6001 113.2 53.5996C112.9 57.4992 112.1 60.999 111.5 61.5996C110.767 62.2663 108.5 62.1664 104.7 61.2998C101.6 60.5998 97.3002 58.7998 95.2002 57.2998C93.1002 55.7998 90.8 52.9998 90 50.7998C89.2 48.7998 88.5 45.4996 88.5 43.5996C88.5001 41.6995 88.9997 38.0994 89.5996 35.5996Z" fill="white"/>
<path d="M167.8 0C168.5 0 170.8 1.19984 173 2.7998C175.2 4.39966 178.199 6.99957 179.6 8.59961C181 10.1996 182.4 13.3 182.8 15.5C183.2 17.7 183.1 21.1 182.5 23C181.9 24.9 180 28.6002 178.2 31.2002C176.5 33.9002 174.8 36 174.5 36C174.2 36 171.8 34.3002 169 32.2002C166.3 30.2002 163 26.9 161.7 25C159.7 22.1 159.4 20.5 159.7 16C159.9 11.9 160.9 9.1998 163.4 5.2998V5.2002C165.2 2.4005 167.2 0.000488094 167.8 0Z" fill="white"/>
<path d="M249.8 0.0996094C250.5 -0.00038068 251.7 0.799944 252.6 1.7998C253.5 2.79977 255.2 5.39966 256.2 7.59961C257.3 9.79957 258.5 12.7998 258.9 14.2998C259.2 15.8998 259.1 18.7998 258.6 20.7998C257.9 23.2998 255.9 26.2002 252.8 29.2002C250.2 31.7001 247 34.1004 245.8 34.4004C244.5 34.8003 242.8 34.5997 241.9 33.7998C241.1 33.1998 239.3 30.2996 237.9 27.5996C236.4 24.5996 235.5 20.7996 235.5 18.0996C235.4 15.0998 236.2 12.5001 237.7 10.2002C239 8.30028 242 5.20043 244.3 3.40039C246.7 1.60057 249.199 0.0999141 249.8 0.0996094Z" fill="white"/>
</svg>
