<svg width="977" height="238" viewBox="0 0 977 238" fill="none" xmlns="http://www.w3.org/2000/svg">
<path d="M263.8 227.1C260.8 227.1 259.5 225.2 259.2 222.8H258.9C257.8 226 254.9 227.8 251.2 227.8C245.6 227.8 242.3 224.7 242.3 219.8C242.3 214.9 245.9 212 253.6 212H258.9V209.4C258.9 205.6 256.8 203.6 252.6 203.6C248.4 203.6 247.3 205.1 245.8 207.6L243.3 205.3C244.7 202.5 247.9 200.1 252.7 200.1C257.5 200.1 262.9 203.5 262.9 209.1V223.7H265.9V227.3H263.6L263.8 227.1ZM259 219.4V215H253.5C248.8 215 246.7 216.4 246.7 219V220.1C246.7 222.7 248.8 224.2 252 224.2C255.2 224.2 259 222.1 259 219.4Z" fill="white"/>
<path d="M272.3 227.1V200.5H276.4V204.8H276.6C277.9 201.8 280.2 199.8 284.1 199.8C288 199.8 293 203.5 293 210V227.1H288.9V210.8C288.9 206.1 286.8 203.6 282.9 203.6C279 203.6 276.4 205.3 276.4 208.7V227.2H272.3V227.1Z" fill="white"/>
<path d="M310.899 227.1V223.5H315.999V194.7H310.899V191.1H325.299V194.7H320.199V223.5H325.299V227.1H310.899Z" fill="white"/>
<path d="M333.5 191.1H348.3C354.2 191.1 357.9 194.8 357.9 200.4C357.9 206 354.4 207.7 352.1 208V208.3C354.7 208.5 359.2 210.7 359.2 216.7C359.2 222.7 355.2 227.1 349.9 227.1H333.5V191.1ZM337.8 206.7H347.8C351.2 206.7 353.3 204.9 353.3 201.7V199.9C353.3 196.7 351.2 194.9 347.8 194.9H337.8V206.7ZM337.8 223.3H348.5C352.2 223.3 354.5 221.3 354.5 217.7V215.9C354.5 212.3 352.2 210.3 348.5 210.3H337.8V223.2V223.3Z" fill="white"/>
<path d="M367.5 191.1H373.3L383.6 210.5H383.9L394.3 191.1H399.9V227.1H395.7V196.8H395.4L392.4 202.8L383.8 218.5L375.2 202.8L372.2 196.8H371.9V227.1H367.7V191.1H367.5Z" fill="white"/>
<path d="M418.2 209.3C418.2 197.3 423.6 190.5 432.7 190.5C441.8 190.5 442.8 193.4 445.1 198.4L441.6 200.5C440.2 196.8 437.2 194.4 432.7 194.4C428.2 194.4 422.8 199.3 422.8 206.7V212.1C422.8 219.5 426.5 224 432.7 224C438.9 224 440.4 221.4 441.9 217.5L445.4 219.7C443.1 224.8 438.7 227.9 432.8 227.9C423.7 227.9 418.3 221.5 418.3 209.5L418.2 209.3Z" fill="white"/>
<path d="M449.899 213.8C449.899 205.3 454.799 199.9 461.899 199.9C468.999 199.9 473.899 205.4 473.899 213.8C473.899 222.2 468.999 227.7 461.899 227.7C454.799 227.7 449.899 222.2 449.899 213.8ZM469.499 215.7V211.9C469.499 206.3 466.399 203.5 461.899 203.5C457.399 203.5 454.299 206.2 454.299 211.9V215.7C454.299 221.3 457.399 224.1 461.899 224.1C466.399 224.1 469.499 221.4 469.499 215.7Z" fill="white"/>
<path d="M481 227.1V200.5H485.1V204.8H485.3C486.5 202.1 488.3 199.8 492.5 199.8C496.7 199.8 499.2 201.4 500.6 205.2H500.7C501.7 202.3 504.3 199.8 508.8 199.8C513.3 199.8 517.5 203.5 517.5 210V227.1H513.4V210.8C513.4 206.1 511.6 203.6 507.6 203.6C503.6 203.6 501.4 205.3 501.4 208.7V227.2H497.3V210.9C497.3 206.2 495.5 203.7 491.6 203.7C487.7 203.7 485.3 205.4 485.3 208.8V227.3H481.2L481 227.1Z" fill="white"/>
<path d="M526.3 200.5H530.4V204.8H530.6C532 201.4 534.7 199.8 538.4 199.8C545.1 199.8 549.2 205.2 549.2 213.7C549.2 222.2 545 227.6 538.4 227.6C531.8 227.6 532.2 225.9 530.6 222.6H530.4V237.2H526.3V200.3V200.5ZM544.8 216.1V211.6C544.8 206.9 541.9 203.7 537.3 203.7C532.7 203.7 530.4 205.9 530.4 208.8V218.7C530.4 222.2 533.5 224.1 537.3 224.1C541.1 224.1 544.8 220.9 544.8 216.2V216.1Z" fill="white"/>
<path d="M575.8 227.1C572.8 227.1 571.5 225.2 571.2 222.8H570.9C569.8 226 566.9 227.8 563.2 227.8C557.6 227.8 554.3 224.7 554.3 219.8C554.3 214.9 557.9 212 565.6 212H570.9V209.4C570.9 205.6 568.8 203.6 564.6 203.6C560.4 203.6 559.3 205.1 557.8 207.6L555.3 205.3C556.7 202.5 559.9 200.1 564.7 200.1C569.5 200.1 574.9 203.5 574.9 209.1V223.7H577.9V227.3H575.6L575.8 227.1ZM570.9 219.4V215H565.4C560.7 215 558.6 216.4 558.6 219V220.1C558.6 222.7 560.7 224.2 563.9 224.2C567.1 224.2 570.9 222.1 570.9 219.4Z" fill="white"/>
<path d="M584.2 227.1V200.5H588.3V204.8H588.5C589.8 201.8 592.1 199.8 596 199.8C599.9 199.8 604.9 203.5 604.9 210V227.1H600.8V210.8C600.8 206.1 598.7 203.6 594.8 203.6C590.9 203.6 588.3 205.3 588.3 208.7V227.2H584.2V227.1Z" fill="white"/>
<path d="M629.799 200.5H633.899L621.999 233.3C620.799 236.5 619.699 237.4 615.799 237.4H613.699V233.8H617.899L619.899 228.1L609.899 200.5H613.999L620.399 218.6L621.599 222.9H621.899L623.299 218.6L629.699 200.5H629.799Z" fill="white"/>
<path d="M242.9 47.1001H263.4V91.2001H310.4V47.1001H331.1V155.1H310.4V109.7H263.4V155.1H242.9V47.1001Z" fill="white"/>
<path d="M344.3 134.2C344.3 118 355.7 112.6 369.6 109.3L393.1 103.9V102C393.1 94.1002 388 89.2002 379.8 89.2002C371.6 89.2002 366.8 93.7002 365.3 101.1L347.7 99.1002C350.3 84.3002 362.8 74.7002 380.6 74.7002C398.4 74.7002 413 87.1002 413 105.1V136.7C413 138.7 413.6 139.3 415 139.3H419.3V155H407.3C399.7 155 396.3 152.5 396.3 146.4C396.3 140.3 396.6 142.4 397.4 139.6L395.7 139C390.1 151 382 156.3 370.4 156.3C358.8 156.3 344.3 147.5 344.3 134.1V134.2ZM375.7 141.9C385.9 141.9 393.1 134.5 393.1 122.8V116.6L376.3 120.6C367.8 122.6 364.3 125.5 364.3 132C364.3 138.5 368.8 141.9 375.7 141.9Z" fill="white"/>
<path d="M426.6 133.9L445.4 130.2C447.4 138.5 454 142.7 462.8 142.7C471.6 142.7 476.5 139.1 476.5 133.1C476.5 127.1 470.6 125.8 459.5 123.8C445.5 121.6 427.3 119 427.3 99.6002C427.3 80.2002 439.8 74.7002 460.2 74.7002C480.6 74.7002 492.3 82.3002 495.5 97.5002L476.5 100.6C474.8 92.9002 468.5 88.9002 460.1 88.9002C451.7 88.9002 446.7 92.8002 446.7 98.0002C446.7 103.2 452.7 105.3 463.8 107.3C477.7 109.5 495.9 112.1 495.9 131.5C495.9 150.9 483.5 157 462.7 157C441.9 157 429.8 149.3 426.4 133.8L426.6 133.9Z" fill="white"/>
<path d="M528.3 155.2H508.2V44.1001H528.3V78.7001C528.3 82.7001 527.5 86.6001 526.4 92.3001L528.3 92.9001C533.1 81.5001 540.3 74.8001 553.8 74.8001C567.3 74.8001 580 85.6001 580 104V155.2H559.9V104.6C559.9 95.6001 555.4 90.7001 546.5 90.7001C537.6 90.7001 528.3 98.4001 528.3 112V155.2Z" fill="white"/>
<path d="M621.2 135.2C621.2 138.3 622.3 139.2 624.6 139.2H633.4V155.1H615.2C606.1 155.1 601.2 150 601.2 140.6V92.5002H590.1V76.6002H621.3V135.2H621.2ZM598.4 55.6002C598.4 48.8002 604 43.2002 610.6 43.2002C617.2 43.2002 622.8 48.8002 622.8 55.6002C622.8 62.4002 617.4 67.8002 610.6 67.8002C603.8 67.8002 598.4 62.4002 598.4 55.6002Z" fill="white"/>
<path d="M640 101.2C640 68.7999 661.3 45.3999 692.1 45.3999C722.9 45.3999 735.8 60.3999 740.5 80.6999L720.1 85.5999C716.2 71.3999 706.8 63.3999 692 63.3999C677.2 63.3999 661.3 78.9999 661.3 101.2C661.3 123.4 673.7 139 692.8 139C711.9 139 717.2 130.8 721.1 115.7L740.4 117.9C735.8 142.1 717.9 157.1 692.6 157.1C667.3 157.1 640 133.6 640 101.3V101.2Z" fill="white"/>
<path d="M748.8 115.8C748.8 91.8998 765.6 74.7998 788.9 74.7998C812.2 74.7998 829 91.8998 829 115.8C829 139.7 812.2 157 788.9 157C765.6 157 748.8 139.7 748.8 115.8ZM809 115.8C809 101 801.1 91.0998 788.9 91.0998C776.7 91.0998 768.8 101 768.8 115.8C768.8 130.6 776.8 140.7 788.9 140.7C801 140.7 809 130.8 809 115.8Z" fill="white"/>
<path d="M841.7 76.6001H860.2V79.7001C860.2 83.9001 860 87.3001 858.8 93.6001L860.7 94.1001C863.6 83.8001 869 76.7001 881.7 76.7001H887.4V96.2001H879.2C867.9 96.2001 861.8 103 861.8 115.5V155.3H841.7V76.8001V76.6001Z" fill="white"/>
<path d="M896.8 76.5999H916.6V80.1999C916.6 83.7999 916.3 86.4999 915.2 92.8999L917.1 93.3999C921.9 80.8999 930.8 74.8999 942.4 74.8999C961.5 74.8999 976.7 90.5999 976.7 115.9C976.7 141.2 961.6 157.1 942.4 157.1C923.2 157.1 922.3 151.1 917.4 138.4L915.7 139C916.6 145.2 916.9 148.1 916.9 151.5V186.8H896.8V76.5999ZM956.7 115.8C956.7 100.5 948.4 91.0999 936.6 91.0999C924.8 91.0999 916.5 100.5 916.5 115.8C916.5 131.1 924.8 140.7 936.6 140.7C948.4 140.7 956.7 131.3 956.7 115.8Z" fill="white"/>
<path d="M80 0L0 46.2V157L30 174.3V63.5L80 34.7V0Z" fill="white"/>
<path d="M111.9 0V88.3H80.0004V55.3L49.9004 72.7V185.8L80.0004 203.1V115.1H111.9V147.9L142 130.5V17.4L111.9 0Z" fill="white"/>
<path d="M111.9 203.2L191.9 157V46.1999L161.8 28.8999V139.7L111.9 168.5V203.2Z" fill="white"/>
</svg>
