<svg width="522" height="93" viewBox="0 0 522 93" fill="none" xmlns="http://www.w3.org/2000/svg">
<path d="M473 85.5V93H520V78H473V85.5Z" fill="white"/>
<path fill-rule="evenodd" clip-rule="evenodd" d="M165 1H183V27L185.8 24.7C187.3 23.4 190.3 21.8 192.5 21.1C194.9 20.3 198.9 19.9 202.5 20.2C206.7 20.5 209.5 21.4 211.9 23.1C213.9 24.5 216.2 27.4 217.3 30C219 33.8 219.4 37.8 220.5 78H201L200.5 37.8L198 35.9C196.6 34.8 194.3 33.9 192.7 34C191.2 34 188.6 35.2 183.5 39.8L183 78H165V1ZM8 6H27V21H39V34H27V48.5C27 62 27.1 63.1 29 64C30.1 64.5 32.8 65 39 65V78H28.7C21 78 17.6 77.6 15 76.2C13.1 75.3 10.9 73.2 10.1 71.5C9.1 69.4 8.5 63.2 7.5 34H0V21H8V6ZM287 6H306V21H318V34H306V48.5C306 62 306.1 63.1 308 64C309.1 64.5 311.8 65 318 65V78H307.7C300 78 296.6 77.6 294 76.2C292.1 75.3 289.9 73.2 289.1 71.5C288.1 69.4 287.5 63.2 286.5 34H279V21H287V6ZM74 19.8C75.9 20 79.1 20.6 81 21.1C82.9 21.5 86.4 23.3 88.7 25C91.1 26.6 94.3 30.3 96 33.3C97.8 36.4 99.4 41.3 100 45.5C100.6 49.4 100.9 53.1 100.6 53.8C100.1 54.7 94.9 55 79.5 55C61.9 55 59 55.2 59 56.5C59 57.3 60.6 59.6 62.5 61.5C65.8 64.8 66.3 65 72.4 64.7C77.5 64.6 79.3 64 81.2 62.3C83.1 60.4 84.6 60 91 60C95.1 60 98.8 60.3 99.2 60.7C99.6 61.1 99.1 63.1 98.1 65C97.1 66.9 94.5 70 92.4 71.9C90.2 73.8 86.5 76.3 84 77.4C80.7 78.8 77.4 79.4 72 79.4C67.9 79.4 62.6 78.8 60.2 78.2C57.9 77.5 54.1 75.5 51.8 73.7C49.4 71.9 46.5 68.8 45.2 66.9C43.9 65.1 42.4 61.7 41.8 59.5C41.2 57.3 40.7 52.6 40.7 49C40.7 44.2 41.4 41.1 43.2 37C44.6 34 47.3 30 49.1 28.1C51 26.3 54.2 23.9 56.3 22.9C58.3 21.8 62.4 20.6 65.3 20.2C68.1 19.7 72.1 19.5 74 19.8ZM59.1 41.9C59 42.6 62.7 43 70.5 43C81.3 43 82 42.9 82 41C82 39.9 80.7 37.9 79 36.5C76.7 34.6 74.9 34 70.9 34C66.4 34 65.4 34.4 62.5 37.4C60.7 39.3 59.2 41.3 59.1 41.9ZM135.5 19.7C138.3 20 142.5 21.1 145 22.2C147.5 23.2 150.6 25.1 151.8 26.3C153.1 27.5 155.2 30.3 156.5 32.5C157.8 34.7 159.1 38 160 43H151.5C144.6 43 143 42.7 143 41.5C143 40.7 141.7 38.6 140 37C137.8 34.8 136.1 34 133.5 34C131.6 34 128.8 34.6 127.3 35.4C125.6 36.2 123.8 38.4 122.8 40.9C121.8 43.1 121 47.1 121 49.7C121 52.4 121.9 56.4 123 58.7C124.1 61.1 125.9 63.4 127 64C128.1 64.5 130.8 65 133 65C135.2 65 137.9 64.5 139 64C140.1 63.4 141.7 61.6 142.5 60C144 57 144.1 57 152 57C156.4 57 160.2 57.3 160.4 57.7C160.7 58.2 159.8 60.7 158.6 63.5C157.3 66.2 154.7 69.9 152.9 71.7C151 73.5 147.3 75.9 144.5 77.2C140.6 78.9 137.7 79.4 131.5 79.4C125.3 79.3 122.3 78.8 118.1 76.9C115.1 75.6 111.3 72.9 109.7 71C108 69.1 106 65.9 105.2 64C104.4 62.1 103.4 58 103 55C102.6 52 102.7 46.8 103.2 43.5C103.7 40.2 104.9 36.1 105.7 34.5C106.5 32.8 108.6 30 110.4 28.2C112.1 26.3 115.3 23.9 117.5 22.8C119.7 21.7 123.5 20.4 126 20C128.5 19.6 132.8 19.5 135.5 19.7ZM353 19.6C356.6 19.9 361.1 20.8 363 21.6C364.9 22.4 367.8 24.3 369.3 25.8C370.8 27.3 372.7 30.3 373.5 32.5C374.5 35.3 375 42.5 375.5 78H366.8C358.1 78 358 78 358 73L354.8 75.5C353 76.8 348.8 78.5 345.5 79.1C340.9 80 338.2 80 334.3 79.1C331.2 78.5 327.7 76.8 325.9 75.2C324.1 73.7 322.1 71.3 321.4 69.7C320.6 68.2 320 65.2 320 63C320 60.8 320.6 57.8 321.4 56.2C322.1 54.7 324.1 52.3 325.9 50.7C327.6 49.2 331.8 47.1 335.3 46.1C338.7 45.1 344.2 43.9 347.5 43.5C350.8 43.1 354.3 42.6 355.3 42.4C356.4 42.1 357 41 357 39C357 36.9 356.2 35.4 354.3 34C352.7 32.8 350.3 31.9 348.8 32C347.2 32 344.6 32.7 343 33.5C341.2 34.4 339.8 36 339.5 37.5C339 39.9 338.8 40 330.5 40C322.4 40 322 39.9 322 37.7C321.9 36.5 323.6 33.3 325.7 30.6C327.8 27.9 331.3 24.6 333.5 23.3C335.7 22 339.5 20.6 342 20C344.5 19.5 349.4 19.3 353 19.6ZM347.1 55.3C344.6 55.7 341.7 56.9 340.7 57.8C339.7 58.7 338.9 60.5 339 61.7C339 63 340 64.7 341.3 65.5C342.5 66.3 345.1 67 347 67C349 67.1 351.7 66.2 353.3 65C355 63.8 356.4 61.4 357.1 58.7C357.6 56.4 358 54.3 357.8 54C357.6 53.7 356.2 53.7 354.6 53.9C353 54.2 349.6 54.8 347.1 55.3ZM253 20.3C261.1 20.5 263.2 21 267.5 23.3C270.6 25 273.6 27.6 275.3 30.3C276.8 32.6 278 35.5 278 36.7C278 38.9 277.6 39 270 39C263 39 261.9 38.7 261 37C260.4 35.9 258.3 34.5 256.3 33.9C254.2 33.3 250.7 33 248.5 33.4C246.3 33.7 243.9 34.4 243.3 35C242.5 35.6 242.3 36.7 242.8 37.6C243.2 38.5 244.3 39.7 245.3 40.1C246.2 40.6 250.7 41.7 255.3 42.5C259.8 43.4 265.5 44.7 268 45.5C270.5 46.3 274.1 48.6 276 50.5C279.2 53.8 279.5 54.6 279.4 59.8C279.4 63.1 278.7 66.9 277.7 68.7C276.8 70.5 273.9 73.3 271.3 75C268.4 76.7 263.9 78.4 260 79.1C256.3 79.8 250.9 80 247.5 79.6C244.2 79.2 239.1 77.8 236.3 76.5C233.4 75.1 229.9 72.5 228.6 70.7C227.3 69 225.8 65.9 225.1 64C224.5 62.1 224 60.2 224 59.7C224 59.3 227.8 59 232.5 59C240.2 59 241 59.2 241.5 61C241.8 62.1 243.3 63.7 245 64.5C246.7 65.3 250 66 252.5 66C255 66 258.1 65.4 259.5 64.7C260.9 64.1 262 62.7 262 61.7C262 60.8 260.8 59.4 259.3 58.6C257.7 57.9 252.9 56.7 248.5 56.1C244.1 55.4 238.3 53.8 235.5 52.6C232.8 51.4 229.5 49.1 228.3 47.4C227.1 45.8 225.8 42.7 225.5 40.5C225.1 38.3 225.2 35 225.9 33C226.5 31.1 228.4 28.1 230.1 26.5C231.8 24.8 235.5 22.7 238.4 21.7C242.2 20.4 245.9 20 253 20.3ZM446 20.3C454.1 20.5 456.2 21 460.5 23.3C463.6 25 466.6 27.6 468.3 30.3C469.8 32.6 471 35.5 471 36.7C471 38.9 470.6 39 463 39C456 39 454.9 38.7 454 37C453.4 35.9 451.3 34.5 449.3 33.9C447.2 33.3 443.7 33 441.5 33.4C439.3 33.7 436.9 34.4 436.3 35C435.5 35.6 435.3 36.7 435.8 37.6C436.2 38.5 437.3 39.7 438.3 40.1C439.2 40.6 443.7 41.7 448.3 42.5C452.8 43.4 458.5 44.7 461 45.5C463.5 46.3 467.1 48.6 469 50.5C472.2 53.8 472.5 54.6 472.4 59.8C472.4 63.1 471.7 66.9 470.7 68.7C469.8 70.5 466.9 73.3 464.3 75C461.4 76.7 456.9 78.4 453 79.1C449.3 79.8 443.9 80 440.5 79.6C437.2 79.2 432.1 77.8 429.3 76.5C426.4 75.1 422.9 72.5 421.6 70.7C420.3 69 418.8 65.9 418.1 64C417.5 62.1 417 60.2 417 59.7C417 59.3 420.8 59 425.5 59C433.2 59 434 59.2 434.5 61C434.8 62.1 436.4 63.7 438 64.5C439.6 65.3 443 66 445.5 66C448 66 451.1 65.4 452.5 64.7C453.9 64.1 455 62.7 455 61.7C455 60.8 453.8 59.4 452.3 58.6C450.7 57.9 445.9 56.7 441.5 56.1C437.1 55.4 431.3 53.8 428.5 52.6C425.8 51.4 422.5 49.1 421.3 47.4C420.1 45.8 418.8 42.7 418.5 40.5C418.1 38.3 418.2 35 418.9 33C419.5 31.1 421.4 28.1 423.1 26.5C424.8 24.8 428.5 22.7 431.4 21.7C435.2 20.4 438.9 20 446 20.3ZM382 21H399V30L401.8 26.9C403.3 25.1 405.7 23.1 407.3 22.4C408.8 21.6 411.6 21 417 21V38.5H412.7C410.4 38.6 407.3 38.9 405.8 39.3C404.1 39.7 402.4 41.2 401.5 43C400.4 45.3 400 49.8 400 78H382V21Z" fill="white"/>
</svg>
