<svg xmlns:xlink="http://www.w3.org/1999/xlink" xmlns="http://www.w3.org/2000/svg" width="240" height="42" viewBox="0 0 240 42" fill="none">
<path fill-rule="evenodd" clip-rule="evenodd" d="M3.98038 37.6797C3.98038 37.6797 6.36709 38.6271 6.36709 39.5801C6.31586 39.7901 6.19256 39.9759 6.01836 40.1056C5.84417 40.2352 5.62993 40.3007 5.41241 40.2907C4.59979 40.2907 3.50304 39.0162 3.50304 38.3902C3.48364 38.2347 3.52115 38.0774 3.60876 37.947C3.69637 37.8166 3.82824 37.7217 3.98038 37.6797V37.6797Z" fill="white"/>
<path d="M1.47221 26.0143C1.46676 25.9899 1.45573 25.967 1.43997 25.9475C1.42421 25.9279 1.40413 25.9122 1.38128 25.9016C1.3589 25.8918 1.33471 25.8867 1.31025 25.8867C1.28579 25.8867 1.2616 25.8918 1.23922 25.9016C0.865029 26.0609 0.547253 26.3273 0.326563 26.6669C0.105873 27.0065 -0.00769159 27.4036 0.000404624 27.8076C0.000404624 32.0653 11.5589 32.5446 17.8211 40.1576C18.1577 40.5672 18.5839 40.8954 19.0673 41.1172C19.5508 41.339 20.0788 41.4486 20.6113 41.4377C21.9804 41.4312 23.3475 41.3313 24.7028 41.1388C24.7759 41.1272 24.8448 41.0973 24.9031 41.052C24.9614 41.0067 25.0072 40.9475 25.0361 40.8799C25.0651 40.8123 25.0763 40.7385 25.0687 40.6654C25.061 40.5924 25.0349 40.5224 24.9926 40.4621C17.3665 29.6911 2.84172 32.1837 1.47221 26.0143Z" fill="white"/>
<path d="M18.0497 12.671C17.3052 11.9322 15.2083 12.4962 14.0718 13.4492C12.9353 14.4022 13.3728 15.0789 13.3728 15.0789C13.7587 14.5553 14.245 14.1123 14.8038 13.7756C15.3625 13.4388 15.9828 13.2148 16.629 13.1165C17.1325 13.0874 17.6208 12.9343 18.0497 12.671V12.671Z" fill="white"/>
<path d="M45.1052 11.8431C44.8755 11.3484 44.5305 10.9149 44.0987 10.5786C43.6669 10.2423 43.1607 10.0127 42.6218 9.90885C41.3319 9.59305 40.1897 9.75659 39.4112 10.4333L36.8426 9.58741C36.5471 8.95582 36.3084 8.38625 36.1323 7.89563C35.9856 7.47624 35.6909 7.1237 35.3026 6.90313C33.5978 5.94445 29.0517 3.67183 27.2503 5.99521C27.1709 6.08676 27.0969 6.18279 27.0287 6.28281L26.4604 6.09671C26.1706 5.10984 25.2273 4.34854 23.9146 4.02711C23.1643 3.83302 22.3726 3.86641 21.6415 4.12297C21.541 4.14819 21.4518 4.20598 21.3881 4.28719C21.3244 4.36839 21.2897 4.46837 21.2897 4.57129C21.2897 4.67421 21.3244 4.77419 21.3881 4.8554C21.4518 4.93661 21.541 4.99439 21.6415 5.01961L23.7043 5.74144C23.8163 5.77839 23.9199 5.8369 24.0091 5.9136C24.0982 5.9903 24.1713 6.0837 24.2241 6.18845C24.2769 6.2932 24.3083 6.40725 24.3166 6.52408C24.325 6.6409 24.31 6.75821 24.2726 6.86929V6.86929C24.236 6.98086 24.1774 7.0841 24.1003 7.17301C24.0232 7.26192 23.929 7.33472 23.8232 7.38719C23.7175 7.43966 23.6023 7.47075 23.4843 7.47865C23.3663 7.48656 23.248 7.47111 23.1361 7.43322L20.8858 6.76778C20.7755 6.73533 20.6585 6.73311 20.5471 6.76137C20.4357 6.78963 20.3341 6.84732 20.2531 6.92829C20.1721 7.00926 20.1147 7.1105 20.087 7.22125C20.0593 7.332 20.0624 7.44812 20.0959 7.55728C20.3025 8.10554 20.647 8.59228 21.0966 8.97128C21.5461 9.35027 22.0858 9.60895 22.6644 9.72275C23.1553 9.84861 23.6672 9.8725 24.1678 9.79293C24.6685 9.71336 25.1472 9.53204 25.5739 9.26034L26.0626 9.41823C26.1175 9.99917 26.2983 10.5615 26.5925 11.0666C26.8868 11.5718 27.2875 12.0079 27.7674 12.345C29.0062 13.0781 30.1485 12.424 31.4441 11.7811C31.4441 11.7811 34.6832 14.3526 33.183 21.6385C29.029 22.0727 27.5288 23.5558 26.0229 25.0503C24.2863 24.6098 22.4752 24.5406 20.7096 24.8472C21.2926 24.2955 21.9802 23.8642 22.7326 23.5784C22.9267 23.5043 23.0936 23.3736 23.2113 23.2034C23.3289 23.0333 23.3919 22.8317 23.3918 22.6254C23.3918 22.6254 25.2898 22.022 25.2898 21.3283C25.2898 20.6347 22.9429 20.708 21.9768 15.7286C21.9216 15.3961 21.779 15.084 21.5635 14.8236C21.3481 14.5633 21.0672 14.3638 20.7494 14.2454C20.6782 14.0684 20.6514 13.8769 20.6712 13.6874C20.691 13.4978 20.7568 13.3158 20.863 13.1571C21.2267 12.5931 21.4881 12.3225 21.3972 11.8657C21.3063 11.4089 20.63 11.0423 20.63 11.0423V10.3036C20.63 10.3036 18.7548 8.9107 18.7548 6.92568C18.7548 4.94066 21.3574 2.54962 22.0677 1.85035C22.085 1.82826 22.097 1.8026 22.1029 1.77526C22.1088 1.74793 22.1085 1.71962 22.1018 1.69245C22.0966 1.66429 22.0852 1.63759 22.0686 1.61422C22.0519 1.59085 22.0303 1.57136 22.0052 1.55711C20.3546 0.518824 18.4359 -0.0218486 16.4817 0.000676175C5.4517 0.000676175 2.84337 9.82426 0.502124 14.5951C0.476943 14.647 0.463867 14.7038 0.463867 14.7614C0.463867 14.819 0.476943 14.8759 0.502124 14.9278C2.84337 19.5971 6.66779 19.2193 6.87236 23.1216C7.04284 26.2571 6.3041 26.3247 5.57104 26.2571C4.99471 26.1202 4.45303 25.8668 3.9799 25.5127C3.95216 25.4916 3.91821 25.4802 3.88329 25.4802C3.84838 25.4802 3.81443 25.4916 3.78669 25.5127C3.75908 25.5341 3.73881 25.5635 3.72864 25.5968C3.71847 25.6301 3.7189 25.6657 3.72986 25.6988C3.94361 26.4695 4.41228 27.1466 5.06056 27.6212C5.70883 28.0957 6.49906 28.3402 7.30424 28.3154C8.54306 28.3154 8.93516 27.1875 8.93516 26.1725V22.631C8.93935 22.459 8.90479 22.2882 8.834 22.1312C8.76322 21.9741 8.658 21.8347 8.52601 21.7231C7.68498 21.0069 5.90063 19.2869 5.90063 17.7756C5.88929 17.6468 5.90565 17.517 5.94862 17.3949C5.9916 17.2728 6.06021 17.1611 6.14992 17.0673C6.23963 16.9735 6.3484 16.8996 6.46902 16.8506C6.58964 16.8016 6.71938 16.7786 6.84963 16.7831C7.80432 16.7831 8.73059 18.2098 9.45228 20.0144C9.57718 20.3517 9.79589 20.647 10.0831 20.8659C10.0999 20.8771 10.1196 20.883 10.1399 20.883C10.1601 20.883 10.1799 20.8771 10.1967 20.8659C10.2118 20.8529 10.223 20.8361 10.229 20.8171C10.2351 20.7982 10.2357 20.778 10.2308 20.7588C9.99873 19.8823 9.85594 18.9849 9.8046 18.0801C9.80025 17.9727 9.77381 17.8672 9.7269 17.7702C9.68 17.6732 9.61362 17.5868 9.53184 17.5162C8.73946 16.8618 8.09507 16.049 7.64072 15.1307C7.18638 14.2125 6.93231 13.2094 6.89509 12.1871C6.89509 8.37497 13.0096 8.69641 14.2427 8.80355C14.3479 9.25041 14.5525 9.66824 14.8416 10.0264C15.1307 10.3845 15.4969 10.6738 15.9134 10.8732C14.0609 11.5499 9.88416 12.9089 9.88416 15.2549C9.88416 17.77 14.0723 17.5839 14.0723 17.5839C14.0723 17.5839 13.4074 22.6085 18.124 24.1254C18.124 24.1254 17.3852 24.8642 14.8508 24.8642C12.4868 24.8642 11.3332 23.8153 10.7763 22.5803C10.7632 22.5554 10.7437 22.5345 10.7197 22.5196C10.6957 22.5047 10.6682 22.4965 10.64 22.4957C10.6116 22.496 10.584 22.5048 10.5607 22.5209C10.5374 22.537 10.5195 22.5596 10.5093 22.5859C10.4122 22.8541 10.3812 23.1414 10.4187 23.4239C10.4563 23.7065 10.5614 23.976 10.7252 24.21C11.4242 25.3379 12.3163 25.9807 12.3163 27.4131C12.3163 28.4676 11.3616 29.1049 10.9695 29.3586C10.9577 29.3667 10.9483 29.3777 10.9423 29.3906C10.9363 29.4035 10.934 29.4178 10.9354 29.432C10.9384 29.4458 10.9454 29.4585 10.9555 29.4685C10.9655 29.4785 10.9783 29.4854 10.9923 29.4883C13.7279 30.1321 16.4029 31.0076 18.9877 32.105C18.9993 32.1105 19.0119 32.1133 19.0247 32.1133C19.0375 32.1133 19.0501 32.1105 19.0616 32.105C19.3799 31.9019 21.8404 30.306 21.9825 28.2026C21.9825 28.2026 22.1643 26.8323 20.0959 26.5841C20.9097 26.3306 21.7607 26.2143 22.6133 26.2401C24.2271 26.2401 25.9888 27.5372 22.8178 34.0167C22.8077 34.0296 22.8022 34.0454 22.8022 34.0618C22.8022 34.0781 22.8077 34.094 22.8178 34.1069C25.0934 35.5173 27.2385 37.1251 29.2279 38.9115C29.2541 38.9365 29.2854 38.9554 29.3198 38.9671C29.3541 38.9788 29.3906 38.9829 29.4268 38.9792C29.4601 38.9809 29.4935 38.9757 29.5247 38.9641C29.556 38.9524 29.5846 38.9346 29.6086 38.9115C29.9098 38.5168 30.4837 37.4679 30.9099 34.8851C30.9294 34.7686 30.9819 34.6599 31.0615 34.572C31.141 34.4841 31.2442 34.4206 31.3589 34.3889C32.7397 33.9941 37.462 32.4715 39.5305 29.6462C41.9627 26.3078 42.8094 25.9413 42.8094 25.9413C42.8094 25.9413 44.4062 25.0559 43.73 22.7156C43.3776 21.4919 41.5194 18.2831 39.6953 14.9955C40.1411 15.3126 40.6448 15.5406 41.1785 15.6665C42.1823 15.9369 43.2532 15.801 44.1562 15.2887C44.2397 15.2363 44.3067 15.1616 44.3496 15.0733C44.3925 14.985 44.4096 14.8865 44.3989 14.789C44.3883 14.6915 44.3503 14.599 44.2893 14.5218C44.2283 14.4447 44.1467 14.386 44.0539 14.3526L41.9968 13.642C41.8798 13.6004 41.7723 13.5363 41.6803 13.4534C41.5884 13.3704 41.5139 13.2702 41.4611 13.1586C41.4083 13.047 41.3782 12.9262 41.3726 12.803C41.3671 12.6798 41.386 12.5568 41.4285 12.4409C41.5102 12.2069 41.6804 12.0137 41.9032 11.9021C42.1259 11.7906 42.3837 11.7694 42.6218 11.8431L44.4517 12.4804C44.5409 12.5133 44.638 12.5197 44.7309 12.4987C44.8238 12.4776 44.9084 12.4301 44.9745 12.3619C45.0499 12.3011 45.1034 12.2177 45.127 12.1241C45.1505 12.0306 45.1429 11.932 45.1052 11.8431V11.8431ZM23.4714 9.33928C22.9547 9.33204 22.4488 9.19149 22.0034 8.93145C21.5581 8.67142 21.1885 8.30084 20.9312 7.85616C21.5957 8.4111 22.4195 8.74412 23.2856 8.8079C24.1517 8.87168 25.016 8.66297 25.7558 8.21143C25.7558 8.21143 25.233 9.33928 23.4714 9.33928ZM21.3801 16.8282C21.3801 16.8282 22.0734 19.8452 23.4714 20.911C23.4714 20.911 23.4145 21.2156 22.977 21.2156C22.5394 21.2156 21.7097 20.5163 21.3801 18.8865C21.0505 17.2568 21.3801 16.8282 21.3801 16.8282ZM15.7941 7.56292C15.7573 7.55652 15.7233 7.53901 15.6969 7.51277C15.6705 7.48653 15.6528 7.45285 15.6464 7.4163C15.3452 5.20571 16.3226 2.51015 16.3226 2.51015C15.6118 3.12479 15.0413 3.8829 14.6493 4.73382C14.2573 5.58474 14.0528 6.50888 14.0495 7.44449C12.0322 7.39374 9.07723 7.60803 7.32697 9.09116C4.88344 11.1608 4.48565 15.08 4.41746 16.1064C4.41428 16.1338 4.40438 16.1601 4.38863 16.1828C4.37287 16.2056 4.35174 16.2242 4.32708 16.237C4.30241 16.2498 4.27497 16.2564 4.24714 16.2562C4.21931 16.2561 4.19194 16.2492 4.16743 16.2361C3.59916 15.8865 2.22965 14.7473 3.20706 12.0461C4.42883 8.66257 8.19642 1.69245 15.7089 1.22439C15.7089 1.22439 18.0103 1.12853 19.5617 1.94622C19.5868 1.95978 19.6081 1.97918 19.624 2.00276C19.6398 2.02633 19.6497 2.05338 19.6526 2.08156C19.6556 2.10926 19.6515 2.13727 19.6406 2.16293C19.6296 2.18859 19.6123 2.21105 19.5901 2.22818C17.9304 3.56782 16.7506 5.40316 16.226 7.46141C16.2165 7.50224 16.192 7.53811 16.1574 7.56207C16.1227 7.58604 16.0804 7.59638 16.0385 7.59111L15.7941 7.56292ZM15.1633 16.3545C12.3504 16.8282 11.3673 15.9711 11.3673 15.2267C11.3673 13.0217 17.766 11.313 19.5674 11.2792C19.9311 11.8431 19.2889 11.7303 19.0275 12.548C18.7661 13.3657 18.1354 13.6308 17.2034 13.7435C16.2699 13.8685 15.3932 14.2604 14.6803 14.8714C14.112 15.3958 14.6803 15.6327 15.8168 15.3C16.9534 14.9673 17.0897 15.4579 17.5557 15.3C18.0217 15.1421 17.6069 14.5725 17.8058 14.471C18.1069 14.3187 18.7263 14.7361 18.7263 14.7361L20.3516 15.7906L18.4024 16.7775C18.2774 16.8508 18.0615 16.9692 18.0615 17.2173C18.0615 17.6064 19.0673 17.4655 19.4139 17.4655C19.7606 17.4655 19.8117 18.0294 19.8117 18.0294C19.2832 18.6328 17.9024 18.6384 17.9024 18.6384C18.2092 19.2869 19.9424 19.2023 20.2948 19.2023C20.6471 19.2023 20.6812 19.7042 20.863 20.505C21.0449 21.3058 22.1643 21.6329 22.1643 21.6329C22.528 22.8171 21.0903 23.1611 20.1413 23.1611C14.578 23.1555 15.1633 16.3545 15.1633 16.3545ZM34.6662 10.4051L38.644 11.595C38.644 11.595 39.3771 12.9428 37.9053 12.548C36.4335 12.1533 35.0071 11.7078 35.0071 11.7078C34.8951 11.6478 34.7968 11.5655 34.7183 11.4661C34.6398 11.3667 34.5828 11.2523 34.5508 11.1301C34.5188 11.0079 34.5126 10.8804 34.5324 10.7557C34.5522 10.6309 34.5978 10.5116 34.6662 10.4051ZM30.9611 10.5686C30.0746 10.4728 30.7054 9.04604 30.0689 8.95581C29.8189 8.92198 29.762 10.5743 29.5006 10.3205C28.9324 9.82426 29.3529 8.80356 29.4097 8.32422C29.4665 7.84488 29.7052 7.25276 29.1881 7.60803C28.6794 8.07358 28.3381 8.69149 28.2164 9.36748C28.0402 10.0104 28.3925 10.3205 28.6312 11.0593C28.8699 11.798 28.4266 11.5499 28.4266 11.5499C26.0115 10.1119 27.7504 7.08922 27.7504 7.08922C28.796 5.31849 30.3644 5.84858 30.3644 5.84858C30.6656 5.95573 30.7394 6.13055 30.7394 6.50838C30.7394 6.88621 30.8417 7.00463 31.3077 7.11178C31.7737 7.21892 31.9726 7.76593 31.9726 8.6513C31.9726 9.53666 31.3702 10.6081 30.9724 10.5686H30.9611ZM32.95 10.5686C32.95 10.5686 32.342 10.4502 32.5352 9.54794C32.6526 9.30956 32.7092 9.04618 32.7 8.781C32.7 8.31294 32.825 7.77157 33.2 7.60803C33.2 7.60803 33.8365 7.60803 33.8365 9.29981C33.8479 9.99344 32.9614 10.5686 32.9614 10.5686H32.95ZM32.9614 25.3773C32.9614 25.3773 31.3873 28.3379 29.2449 28.3379C29.0463 28.3458 28.8481 28.3129 28.6629 28.2413C28.4776 28.1696 28.3093 28.0607 28.1684 27.9215C28.0276 27.7822 27.9173 27.6156 27.8443 27.4321C27.7714 27.2485 27.7375 27.052 27.7447 26.8548C27.7447 25.9976 28.8074 22.9073 33.4273 22.9073C34.5298 22.9073 35.3878 23.1103 35.3878 23.7701C35.3878 24.4299 34.3309 25.5578 32.9614 25.3773ZM41.1557 22.0671C41.1557 22.0671 40.9171 23.804 38.752 23.804C36.5869 23.804 34.7002 20.7588 33.9558 13.7943C34.5215 14.606 35.0195 15.4623 35.4447 16.3545C35.4447 15.3733 35.905 13.7435 33.7058 12.0687C33.7058 12.0687 39.5305 13.2698 39.6669 19.2136C39.632 20.1244 39.2806 20.9951 38.6724 21.678C38.5956 21.748 38.5441 21.841 38.5256 21.9429C38.5071 22.0447 38.5228 22.1497 38.5701 22.2419C38.7349 22.5746 39.1384 22.4957 39.7067 22.1291C40.2749 21.7626 41.1557 21.1084 41.1557 22.0445V22.0671ZM41.724 14.9165C41.724 14.9165 40.2238 15.2943 38.6667 13.6984C38.6667 13.6984 39.2691 13.7661 39.4282 12.892C39.4112 12.8695 40.2579 14.6007 41.7069 14.894L41.724 14.9165Z" fill="white"/>
<path d="M17.2148 17.6953C17.2148 17.6953 16.3965 17.9152 16.6125 19.0318C16.6392 19.3248 16.7668 19.5996 16.9738 19.8102C17.1808 20.0207 17.4545 20.1541 17.749 20.1879C16.9534 19.263 17.2148 17.6953 17.2148 17.6953Z" fill="white"/>
<path fill-rule="evenodd" clip-rule="evenodd" d="M3.53283 33.2606C6.37415 34.8508 12.625 36.7005 13.9093 40.0277C13.9093 40.0277 14.3526 40.7664 11.892 40.7664C10.0224 40.7664 9.52232 40.3209 8.19259 38.7983C6.24913 36.5426 2.39062 35.2625 2.39062 33.5369C2.39063 33.52 2.41336 32.6121 3.53283 33.2606Z" fill="white"/>
<path d="M68.4849 17.0972C67.8776 16.6154 67.204 16.2224 66.4846 15.9299C65.8682 15.6846 65.2109 15.5564 64.5468 15.552C63.8577 15.5233 63.1784 15.7216 62.6147 16.116C62.3774 16.2701 62.1842 16.4824 62.0538 16.7324C61.9234 16.9823 61.8602 17.2614 61.8703 17.5427C61.8568 17.9079 61.9872 18.2639 62.234 18.5352C62.5141 18.8251 62.8479 19.0587 63.2171 19.2232C63.6597 19.4335 64.1223 19.5997 64.598 19.7195C65.1037 19.8604 65.6208 20.0127 66.1039 20.165C67.7762 20.5977 69.2997 21.4706 70.5136 22.6913C71.4799 23.8891 71.9764 25.3935 71.9115 26.9264C71.9275 28.0141 71.7227 29.0939 71.3092 30.1013C70.9172 31.0566 70.3062 31.9081 69.5248 32.5882C68.6836 33.308 67.7004 33.8457 66.638 34.1672C65.4104 34.5602 64.1261 34.7507 62.8364 34.7312C59.8424 34.7446 56.9179 33.8363 54.4658 32.1315L57.1082 27.3606C57.92 28.077 58.8357 28.6682 59.8246 29.1145C60.6636 29.4786 61.5683 29.6704 62.484 29.6784C63.2874 29.7451 64.0862 29.5051 64.7173 29.0073C64.9434 28.8244 65.1271 28.5952 65.2555 28.3353C65.384 28.0754 65.4544 27.791 65.4617 27.5016C65.4643 27.194 65.4044 26.8891 65.2856 26.605C65.1336 26.3302 64.9148 26.0976 64.6491 25.9283C64.2969 25.6916 63.9147 25.502 63.5126 25.3643C63.0466 25.1783 62.4727 24.9696 61.8078 24.7666C61.1429 24.5636 60.2337 24.2365 59.4779 23.9602C58.737 23.6868 58.0474 23.2922 57.4378 22.7928C56.835 22.2859 56.3454 21.6598 56.0001 20.9544C55.6041 20.0675 55.4101 19.1047 55.4319 18.1348C55.4131 17.083 55.6063 16.0381 56.0001 15.0614C56.3724 14.1704 56.9324 13.3686 57.6424 12.7099C58.3898 12.03 59.2726 11.5132 60.2337 11.1929C61.3301 10.8156 62.4829 10.6249 63.6433 10.629C64.8789 10.6435 66.1087 10.7986 67.3086 11.0914C68.5933 11.3839 69.8361 11.8347 71.008 12.4335L68.519 17.0803L68.4849 17.0972ZM78.3045 27.0561C78.3045 29.4923 79.441 30.6934 81.7595 30.6934C82.3161 30.7189 82.8691 30.5939 83.3595 30.3317C83.85 30.0695 84.2594 29.6799 84.544 29.2047H90.0278C88.8913 32.8589 86.1181 34.6823 81.7084 34.6748C80.444 34.6912 79.1864 34.4889 77.992 34.077C76.9166 33.6968 75.9291 33.1062 75.0881 32.3401C74.289 31.5887 73.6595 30.6777 73.2413 29.6671C72.7886 28.5609 72.5645 27.3758 72.5821 26.182C72.5566 24.9418 72.7667 23.7078 73.2015 22.5447C73.5935 21.5258 74.2021 20.6026 74.9858 19.8379C75.7856 19.069 76.7404 18.4771 77.7874 18.101C78.976 17.6892 80.228 17.4869 81.4868 17.5032C82.7345 17.4868 83.9753 17.6892 85.1521 18.101C86.1842 18.4813 87.1207 19.0797 87.8968 19.8548C88.6635 20.6615 89.2451 21.6234 89.6016 22.6744C90.0038 23.8912 90.1959 25.1667 90.1698 26.4471V27.011H78.2363L78.3045 27.0561ZM84.9589 23.7797C84.7895 23.0345 84.3758 22.3661 83.7826 21.8793C83.1647 21.4264 82.4168 21.182 81.6487 21.182C80.8806 21.182 80.1327 21.4264 79.5149 21.8793C78.9428 22.37 78.5727 23.0525 78.475 23.7966L84.9589 23.7797ZM91.2098 18.1405H96.864V21.0785C97.424 20.1815 98.1891 19.428 99.0973 18.8792C100.008 18.4142 101.012 18.1561 102.035 18.1235H103.263V23.5654C102.5 23.1897 101.659 22.9966 100.808 23.0015C100.258 22.9608 99.7066 23.0448 99.1946 23.247C98.6827 23.4493 98.2238 23.7645 97.8528 24.1688C97.1307 25.1453 96.7804 26.344 96.864 27.5524V34.0657H91.2098V18.1235V18.1405Z" fill="white"/>
<path d="M109.593 18.1211L113.4 26.2924L117.287 18.1211H123.635L115.264 34.0633H111.463L103.2 18.1211H109.593Z" fill="white"/>
<path d="M129.099 18.1211H123.428V34.0633H129.099V18.1211Z" fill="white"/>
<path d="M143.26 23.2995C142.391 22.6771 141.353 22.331 140.282 22.307C139.769 22.3019 139.26 22.3938 138.782 22.5777C138.31 22.7533 137.879 23.0218 137.515 23.3672C137.16 23.7281 136.878 24.153 136.685 24.6191C136.481 25.1208 136.377 25.657 136.378 26.1981C136.375 26.7077 136.474 27.2128 136.669 27.6843C136.864 28.1557 137.152 28.584 137.515 28.9444C137.878 29.2916 138.309 29.5604 138.782 29.7339C139.266 29.9182 139.781 30.0118 140.299 30.0102C141.387 29.9966 142.438 29.6146 143.277 28.9275V33.7152C142.027 34.2814 140.673 34.5847 139.299 34.6062C138.167 34.6249 137.041 34.4336 135.98 34.0423C134.372 33.4707 132.984 32.4165 132.007 31.0259C131.03 29.6354 130.514 27.9775 130.531 26.2827C130.519 25.0935 130.755 23.9147 131.224 22.8202C131.651 21.7578 132.3 20.797 133.128 20.0005C133.945 19.2275 134.911 18.627 135.969 18.2355C137.092 17.8015 138.288 17.5851 139.492 17.5982C140.813 17.587 142.118 17.8865 143.3 18.4723V23.2939L143.26 23.2995Z" fill="white"/>
<path d="M161.755 26.5112C161.776 25.2312 161.584 23.9566 161.187 22.7385C160.831 21.6873 160.249 20.7253 159.482 19.9189C158.705 19.1426 157.766 18.5441 156.731 18.1651C155.555 17.7533 154.314 17.5509 153.066 17.5673C151.807 17.551 150.555 17.7533 149.367 18.1651C148.321 18.5432 147.366 19.1349 146.565 19.902C145.785 20.6684 145.179 21.5913 144.787 22.6088C144.358 23.756 144.148 24.9721 144.167 26.1954C144.154 27.3883 144.376 28.5723 144.821 29.6805C145.225 30.6777 145.835 31.5803 146.611 32.3309C147.45 33.0986 148.438 33.6895 149.515 34.0678C150.709 34.4797 151.967 34.682 153.231 34.6656C157.658 34.6656 160.42 32.8497 161.545 29.1955H156.067C155.782 29.6703 155.372 30.0595 154.882 30.3216C154.391 30.5838 153.839 30.7091 153.282 30.6842C151.009 30.6842 149.827 29.4831 149.827 27.0469H161.761L161.755 26.5112ZM150.02 23.7874C150.116 23.0426 150.486 22.3595 151.06 21.8701C151.678 21.4172 152.426 21.1728 153.194 21.1728C153.962 21.1728 154.71 21.4172 155.328 21.8701C155.918 22.36 156.331 23.0271 156.504 23.7705L150.02 23.7874Z" fill="white"/>
<path d="M172.99 15.6716V33.9428H166.853V15.6716H161.772V10.5117H177.985V15.6716H172.99Z" fill="white"/>
<path d="M179.092 13.3294C179.087 12.9563 179.165 12.5868 179.319 12.2467C179.606 11.5747 180.143 11.039 180.82 10.7523C181.338 10.5377 181.909 10.4806 182.46 10.588C183.011 10.6954 183.518 10.9625 183.917 11.3557C184.174 11.6111 184.378 11.9137 184.519 12.2467C184.673 12.589 184.753 12.9599 184.753 13.335C184.753 13.7102 184.673 14.0811 184.519 14.4234C184.377 14.7574 184.173 15.0616 183.917 15.3201C183.66 15.5764 183.355 15.7796 183.019 15.9178C182.673 16.0713 182.298 16.1507 181.919 16.1507C181.54 16.1507 181.165 16.0713 180.82 15.9178C180.143 15.6311 179.606 15.0954 179.319 14.4234C179.172 14.077 179.095 13.7053 179.092 13.3294V13.3294Z" fill="white"/>
<path d="M123.428 13.4426C123.425 13.0715 123.497 12.7035 123.638 12.3599C123.78 12.0234 123.991 11.72 124.257 11.4689C124.511 11.2095 124.817 11.0058 125.155 10.8711C125.673 10.6559 126.244 10.5978 126.795 10.7042C127.346 10.8106 127.853 11.0767 128.252 11.4689C128.509 11.7249 128.713 12.0274 128.855 12.3599C129.001 12.7054 129.076 13.0764 129.076 13.4511C129.076 13.8258 129.001 14.1968 128.855 14.5423C128.711 14.8738 128.507 15.1759 128.252 15.4333C127.859 15.8348 127.352 16.1074 126.798 16.2142C126.245 16.3211 125.671 16.2572 125.155 16.031C124.818 15.8942 124.513 15.6908 124.257 15.4333C123.996 15.178 123.786 14.8756 123.638 14.5423C123.507 14.1899 123.436 13.8182 123.428 13.4426V13.4426Z" fill="white"/>
<path d="M184.763 18.0078H179.092V33.9443H184.763V18.0078Z" fill="white"/>
<path d="M194.051 22.6966V33.9469H188.38V22.6966H186.493V18.0104H188.38V13.2227H194.051V18.0104H196.125V22.6966H194.051Z" fill="white"/>
<path d="M209.85 18.0497V19.6456C209.221 18.9626 208.45 18.4222 207.591 18.0611C206.732 17.7001 205.805 17.5269 204.872 17.5534C203.747 17.5423 202.633 17.7711 201.605 18.2245C200.641 18.6499 199.776 19.2681 199.065 20.0403C198.354 20.8273 197.802 21.7424 197.439 22.7359C197.059 23.7752 196.867 24.8729 196.871 25.9785C196.854 27.1361 197.066 28.2858 197.496 29.362C197.873 30.3714 198.453 31.2943 199.201 32.0745C199.925 32.8172 200.785 33.4163 201.735 33.8396C202.757 34.2721 203.858 34.4891 204.969 34.4768C205.909 34.5118 206.843 34.3256 207.697 33.9336C208.55 33.5415 209.298 32.9547 209.879 32.2211V33.9862H215.561V18.0497H209.85ZM209.748 27.4334C209.559 27.8528 209.295 28.2348 208.969 28.5612C208.63 28.8888 208.231 29.1491 207.793 29.3282C207.345 29.5122 206.864 29.6061 206.378 29.6045C205.88 29.6066 205.386 29.5128 204.923 29.3282C204.493 29.1547 204.105 28.8911 203.787 28.5556C203.106 27.8535 202.721 26.9192 202.713 25.9446C202.703 25.4701 202.802 24.9996 203.003 24.5686C203.193 24.1539 203.45 23.7729 203.764 23.4408C204.083 23.1052 204.47 22.8417 204.901 22.6682C205.361 22.4739 205.856 22.3742 206.355 22.375C206.842 22.3764 207.324 22.4762 207.77 22.6682C208.216 22.8345 208.618 23.0986 208.947 23.4408C209.272 23.78 209.536 24.1732 209.725 24.6025C209.929 25.045 210.036 25.5256 210.038 26.0123C210.046 26.4921 209.947 26.9677 209.748 27.4052V27.4334Z" fill="white"/>
<path d="M217.595 18.0534H223.277V20.0271C223.874 19.2057 224.675 18.5511 225.602 18.1267C226.488 17.7904 227.432 17.6276 228.38 17.6474C229.38 17.6184 230.374 17.811 231.29 18.2113C232.072 18.5799 232.761 19.1175 233.307 19.7847C233.763 20.3015 234.085 20.9209 234.245 21.5892C234.445 22.3099 234.556 23.0523 234.574 23.7998V33.9505H228.892V25.9484C228.901 25.303 228.842 24.6585 228.716 24.0254C228.649 23.6403 228.48 23.28 228.225 22.9824C227.97 22.6847 227.639 22.4606 227.267 22.3336C226.942 22.2277 226.602 22.1744 226.261 22.1757C225.852 22.1493 225.441 22.2124 225.059 22.3605C224.678 22.5086 224.333 22.7381 224.05 23.0329C223.501 23.7234 223.23 24.5914 223.289 25.469V33.9448H217.606V18.0534H217.595Z" fill="white"/>
<path d="M235.17 18.3498C235.17 17.7142 235.424 17.1046 235.877 16.6551C236.33 16.2056 236.945 15.9531 237.585 15.9531C238.226 15.9531 238.84 16.2056 239.293 16.6551C239.746 17.1046 240 17.7142 240 18.3498C240 18.9855 239.746 19.5951 239.293 20.0445C238.84 20.494 238.226 20.7465 237.585 20.7465C236.945 20.7465 236.33 20.494 235.877 20.0445C235.424 19.5951 235.17 18.9855 235.17 18.3498V18.3498ZM235.681 18.3498C235.681 18.8538 235.883 19.3372 236.242 19.6936C236.601 20.05 237.088 20.2502 237.596 20.2502C238.104 20.2502 238.591 20.05 238.951 19.6936C239.31 19.3372 239.511 18.8538 239.511 18.3498C239.511 17.8458 239.31 17.3624 238.951 17.006C238.591 16.6496 238.104 16.4494 237.596 16.4494C237.088 16.4494 236.601 16.6496 236.242 17.006C235.883 17.3624 235.681 17.8458 235.681 18.3498ZM238.102 18.6036L238.767 19.5905H238.017L237.449 18.6431H237.244V19.5905H236.625V17.0584H237.761C237.875 17.043 237.991 17.0522 238.101 17.0852C238.211 17.1182 238.313 17.1743 238.399 17.2498C238.485 17.3252 238.554 17.4181 238.601 17.5223C238.648 17.6265 238.671 17.7395 238.67 17.8536C238.675 18.0238 238.621 18.1906 238.518 18.3267C238.415 18.4628 238.268 18.5604 238.102 18.6036V18.6036ZM237.238 17.6111V18.1412H237.727C237.898 18.1412 238.04 18.0622 238.04 17.8705C238.04 17.6787 237.898 17.6111 237.727 17.6111H237.238Z" fill="white"/>
</svg>