<svg width="32" height="22" viewBox="0 0 32 22" fill="none" xmlns="http://www.w3.org/2000/svg">
<path d="M31.7061 0.00194587H26.0759C23.1628 0.00194587 20.465 1.5528 18.9729 4.08633L17.1981 7.10048L10.1066 0.00389174H0L11.2218 11.2316C11.941 11.9593 13.2274 12.9108 13.8619 13.265C13.8965 13.2845 13.8831 13.337 13.8427 13.337H4.29567V21.6128H5.63013C8.54327 21.6128 11.241 20.0619 12.7332 17.5284L14.5061 14.5162L21.5995 21.6128H31.7061L19.9958 9.89669C19.3267 9.21953 18.6229 8.66107 17.9211 8.34973C17.8826 8.33221 17.8941 8.27578 17.9364 8.27578H31.708V0L31.7061 0.00194587Z" fill="white"/>
</svg>
