<svg width="64" height="64" viewBox="0 0 64 64" fill="none" xmlns="http://www.w3.org/2000/svg">
<rect width="64" height="64" fill="black"/>
<path d="M45.9982 22.0018H40.8489C38.1846 22.0018 35.7172 23.4369 34.3525 25.7814L32.7293 28.5706L26.2434 22.0036H17L27.2634 32.3934C27.9212 33.0669 29.0977 33.9474 29.678 34.2751C29.7097 34.2932 29.6974 34.3418 29.6605 34.3418H20.9288V42H22.1493C24.8136 42 27.281 40.5649 28.6457 38.2204L30.2672 35.433L36.7548 42H45.9982L35.2881 31.1582C34.6761 30.5316 34.0324 30.0148 33.3905 29.7267C33.3554 29.7105 33.3659 29.6582 33.4046 29.6582H46V22L45.9982 22.0018Z" fill="#F1EEE9"/>
</svg>
