<svg width="654" height="334" viewBox="0 0 654 334" fill="none" xmlns="http://www.w3.org/2000/svg">
<path fill-rule="evenodd" clip-rule="evenodd" d="M133.661 327.224H21.6179V333.224H133.661C162.067 333.224 185.082 310.143 185.082 281.687C185.082 268.022 179.667 254.915 170.027 245.25L146.899 222.063C138.605 213.747 133.944 202.469 133.944 190.707C133.944 166.21 153.753 146.364 178.174 146.364C193.745 146.364 208.676 152.559 219.674 163.583L276.891 220.938C287.904 231.977 302.856 238.18 318.449 238.18H325.589C354.066 238.18 377.151 215.096 377.151 186.619C377.151 172.967 371.737 159.872 362.095 150.206L338.967 127.019C330.671 118.702 326.013 107.434 326.013 95.6871C326.013 71.1841 345.876 51.3205 370.379 51.3205H374.462C387.332 51.3205 399.673 56.4409 408.762 65.5521L421.441 78.261C459.623 116.534 521.626 116.531 559.804 78.254L653.695 -15.8815L649.447 -20.1187L555.556 74.0169C519.722 109.944 461.526 109.947 425.689 74.0235L413.01 61.3145C402.795 51.075 388.926 45.3205 374.462 45.3205H370.379C342.562 45.3205 320.013 67.8704 320.013 95.6871C320.013 109.023 325.301 121.814 334.719 131.256L357.847 154.443C366.367 162.984 371.151 174.555 371.151 186.619C371.151 211.782 350.752 232.18 325.589 232.18H318.449C304.45 232.18 291.026 226.611 281.139 216.7L223.921 159.345C211.798 147.193 195.339 140.364 178.174 140.364C150.426 140.364 127.944 162.91 127.944 190.707C127.944 204.055 133.233 216.858 142.651 226.3L165.779 249.487C174.296 258.026 179.082 269.608 179.082 281.687C179.082 306.843 158.739 327.224 133.661 327.224Z" fill="#4400FF"/>
<path fill-rule="evenodd" clip-rule="evenodd" d="M178.251 146.864C153.857 146.864 134.077 166.658 134.077 191.081C134.077 202.808 138.731 214.054 147.014 222.346L170.114 245.471C179.745 255.112 185.155 268.186 185.155 281.818C185.155 310.207 162.161 333.226 133.791 333.226H-65V327.226H133.791C158.842 327.226 179.155 306.898 179.155 281.818C179.155 269.775 174.375 258.226 165.869 249.711L142.769 226.586C133.361 217.169 128.077 204.397 128.077 191.081C128.077 163.35 150.538 140.864 178.251 140.864C195.397 140.864 211.84 147.679 223.958 159.809L281.095 216.997C290.971 226.882 304.371 232.436 318.344 232.436H325.136C348.575 232.436 367.906 214.853 370.659 192.159L356.809 200.695L353.661 195.587L374.483 182.754L391.256 200.231L386.927 204.385L376.531 193.553C373.124 218.895 351.412 238.436 325.136 238.436H318.344C302.778 238.436 287.851 232.249 276.85 221.238L219.714 164.049C208.721 153.047 193.805 146.864 178.251 146.864Z" fill="#FFDACA"/>
</svg>
