<svg width="40" height="40" viewBox="0 0 40 40" fill="none" xmlns="http://www.w3.org/2000/svg">
<rect width="40" height="40" rx="20" fill="#4400FF"/>
<path d="M27.5 16.6667C27.4997 16.3745 27.4225 16.0874 27.2763 15.8344C27.13 15.5813 26.9198 15.3712 26.6667 15.2251L20.8333 11.8917C20.58 11.7455 20.2926 11.6685 20 11.6685C19.7074 11.6685 19.42 11.7455 19.1667 11.8917L13.3333 15.2251C13.0802 15.3712 12.87 15.5813 12.7237 15.8344C12.5775 16.0874 12.5003 16.3745 12.5 16.6667V23.3334C12.5003 23.6257 12.5775 23.9127 12.7237 24.1658C12.87 24.4188 13.0802 24.6289 13.3333 24.7751L19.1667 28.1084C19.42 28.2547 19.7074 28.3317 20 28.3317C20.2926 28.3317 20.58 28.2547 20.8333 28.1084L26.6667 24.7751C26.9198 24.6289 27.13 24.4188 27.2763 24.1658C27.4225 23.9127 27.4997 23.6257 27.5 23.3334V16.6667Z" stroke="#FDFDFF" stroke-width="1.5" stroke-linecap="round" stroke-linejoin="round"/>
<path d="M12.75 15.8333L20 19.9999L27.25 15.8333" stroke="#FDFDFF" stroke-width="1.5" stroke-linecap="round" stroke-linejoin="round"/>
<path d="M20 28.3333V20" stroke="#FDFDFF" stroke-width="1.5" stroke-linecap="round" stroke-linejoin="round"/>
</svg>
