<svg width="40" height="40" viewBox="0 0 40 40" fill="none" xmlns="http://www.w3.org/2000/svg">
<rect width="40" height="40" rx="20" fill="#4400FF"/>
<g clip-path="url(#clip0_2921_6646)">
<path d="M18.2809 22.9167C18.2065 22.6283 18.0561 22.3651 17.8455 22.1545C17.6349 21.9439 17.3718 21.7936 17.0834 21.7192L11.9709 20.4009C11.8836 20.3761 11.8069 20.3236 11.7522 20.2512C11.6975 20.1789 11.668 20.0907 11.668 20C11.668 19.9094 11.6975 19.8212 11.7522 19.7488C11.8069 19.6765 11.8836 19.624 11.9709 19.5992L17.0834 18.28C17.3717 18.2057 17.6348 18.0555 17.8454 17.8451C18.056 17.6346 18.2063 17.3716 18.2809 17.0834L19.5992 11.9709C19.6237 11.8833 19.6762 11.8062 19.7486 11.7512C19.8211 11.6963 19.9095 11.6665 20.0004 11.6665C20.0914 11.6665 20.1798 11.6963 20.2523 11.7512C20.3247 11.8062 20.3772 11.8833 20.4017 11.9709L21.7192 17.0834C21.7936 17.3718 21.9439 17.635 22.1545 17.8456C22.3651 18.0562 22.6283 18.2065 22.9167 18.2809L28.0292 19.5984C28.1171 19.6226 28.1946 19.6751 28.2499 19.7476C28.3052 19.8202 28.3351 19.9088 28.3351 20C28.3351 20.0912 28.3052 20.1799 28.2499 20.2525C28.1946 20.325 28.1171 20.3775 28.0292 20.4017L22.9167 21.7192C22.6283 21.7936 22.3651 21.9439 22.1545 22.1545C21.9439 22.3651 21.7936 22.6283 21.7192 22.9167L20.4009 28.0292C20.3764 28.1168 20.3239 28.1939 20.2514 28.2489C20.179 28.3038 20.0905 28.3336 19.9996 28.3336C19.9087 28.3336 19.8202 28.3038 19.7478 28.2489C19.6754 28.1939 19.6229 28.1168 19.5984 28.0292L18.2809 22.9167Z" stroke="#FDFDFF" stroke-width="1.5" stroke-linecap="round" stroke-linejoin="round"/>
<path d="M26.667 12.5V15.8333" stroke="#FDFDFF" stroke-width="1.5" stroke-linecap="round" stroke-linejoin="round"/>
<path d="M28.3333 14.1667H25" stroke="#FDFDFF" stroke-width="1.5" stroke-linecap="round" stroke-linejoin="round"/>
<path d="M13.333 24.1667V25.8334" stroke="#FDFDFF" stroke-width="1.5" stroke-linecap="round" stroke-linejoin="round"/>
<path d="M14.1667 25H12.5" stroke="#FDFDFF" stroke-width="1.5" stroke-linecap="round" stroke-linejoin="round"/>
</g>
<defs>
<clipPath id="clip0_2921_6646">
<rect width="20" height="20" fill="white" transform="translate(10 10)"/>
</clipPath>
</defs>
</svg>
