<svg width="130" height="30" viewBox="0 0 130 30" fill="none" xmlns="http://www.w3.org/2000/svg">
<path fill-rule="evenodd" clip-rule="evenodd" d="M14.8062 5.41953C16.64 7.28085 17.6262 9.74113 17.5875 12.3463V12.3431C17.507 17.5889 13.0948 21.8558 7.75438 21.8558H0.251389C0.10958 21.8558 0.0386752 21.6851 0.138586 21.582L3.79017 17.9142C3.8514 17.853 3.93198 17.8176 4.019 17.8176H7.82528C10.8871 17.8176 13.4525 15.3702 13.5428 12.3656C13.5879 10.8328 13.0239 9.38369 11.9539 8.28235C10.8838 7.18102 9.44964 6.57561 7.91875 6.57561H4.04478V12.8294C4.04478 12.8841 4.00288 12.926 3.94809 12.926H0.096688C0.0418981 12.926 0 12.8841 0 12.8294V2.63078C0 2.57604 0.0418981 2.53418 0.096688 2.53418H7.91875C10.5261 2.53418 12.9723 3.55822 14.8062 5.41953ZM25.8027 7.71584C21.0843 7.71584 18.9314 11.329 18.9314 14.8584L18.9282 14.8616C18.9282 18.3653 21.3583 22.0589 26.0767 22.0589C29.4543 22.0589 32.0778 20.1783 32.6772 17.2414C32.6901 17.1802 32.6418 17.1222 32.5805 17.1222H29.0192C28.9773 17.1222 28.9418 17.1512 28.9289 17.1931C28.6034 18.3331 27.5914 18.9159 26.0767 18.9159C24.1461 18.9159 22.9053 17.7019 22.6281 15.744H32.529C32.5805 15.744 32.6224 15.7085 32.6257 15.657C32.6514 15.3608 32.674 14.9775 32.674 14.5009C32.674 11.329 30.5211 7.71584 25.8027 7.71584ZM25.8027 10.5271C27.6527 10.5271 28.7291 11.7669 28.8387 13.3127H22.6829C23.0149 11.3805 24.0655 10.5271 25.8027 10.5271ZM34.3562 14.8584C34.3562 11.329 36.5091 7.71584 41.2275 7.71584C45.9459 7.71584 48.0988 11.329 48.0988 14.5009C48.0988 14.9775 48.0762 15.3608 48.0505 15.657C48.0472 15.7085 48.0053 15.744 47.9538 15.744H38.0529C38.3301 17.7019 39.5709 18.9159 41.5015 18.9159C43.0162 18.9159 44.0282 18.3331 44.3538 17.1931C44.3666 17.1512 44.4021 17.1222 44.444 17.1222H48.0053C48.0666 17.1222 48.1149 17.1802 48.102 17.2414C47.5026 20.1783 44.8791 22.0589 41.5015 22.0589C36.7831 22.0589 34.353 18.3653 34.353 14.8616L34.3562 14.8584ZM44.2635 13.3127C44.1539 11.7669 43.0775 10.5271 41.2275 10.5271C39.4903 10.5271 38.4397 11.3805 38.1077 13.3127H44.2635ZM53.9747 7.93804H50.3327V7.93159C50.2779 7.93159 50.236 7.97346 50.236 8.02821V27.3595C50.236 27.4142 50.2779 27.4561 50.3327 27.4561H53.9747C54.0294 27.4561 54.0713 27.4142 54.0713 27.3595V20.5905C54.8158 21.5276 56.1695 22.0525 57.7423 22.0525C61.7451 22.0525 64.4492 19.2122 64.4492 14.8842C64.4492 10.5561 61.9643 7.71584 58.0452 7.71584C56.25 7.71584 54.8996 8.37921 54.0713 9.45478V8.03464C54.0713 7.9799 54.0294 7.93804 53.9747 7.93804ZM60.6397 14.8874C60.6397 17.2027 59.2893 18.7485 57.2459 18.7485C55.2058 18.7485 53.8522 17.2285 53.8522 14.8874C53.8522 12.5462 55.2058 11.0005 57.2459 11.0005C59.286 11.0005 60.6397 12.572 60.6397 14.8874ZM70.0568 24.548C70.118 24.4868 70.1986 24.4546 70.2856 24.4546H74.1983C75.3843 24.4546 76.2126 23.5175 76.2126 22.2487V20.4293C75.4939 21.4501 74.0307 22.0555 72.4031 22.0555C68.2906 22.0555 65.8348 19.2152 65.8348 14.8872C65.8348 10.5592 68.2906 7.71888 72.3483 7.71888C74.0597 7.71888 75.4101 8.35328 76.2126 9.31936V8.03769C76.2126 7.98294 76.2545 7.94107 76.3093 7.94107H79.9512C80.006 7.94107 80.0479 7.98294 80.0479 8.03769V22.6673C80.0479 25.5366 77.9788 27.4655 74.8332 27.4655H67.5397C67.3947 27.4655 67.3238 27.2917 67.4269 27.1918L70.0568 24.5544V24.548ZM73.0122 18.7451C75.1104 18.7451 76.435 17.2283 76.435 14.884C76.435 12.5396 75.1104 10.9971 73.0122 10.9971C70.9141 10.9971 69.6185 12.5428 69.6185 14.884C69.6185 17.2251 70.9721 18.7451 73.0122 18.7451ZM86.71 21.7366V15.0771H86.7132C86.7132 12.7037 87.5673 11.1323 89.4721 11.1323H91.6669C91.7217 11.1323 91.7636 11.0904 91.7636 11.0356V8.03114C91.7636 7.9764 91.7217 7.93453 91.6669 7.93453H90.2166C88.5052 7.93453 87.4545 8.51096 86.71 10.2499V8.03114C86.71 7.9764 86.6681 7.93453 86.6133 7.93453H82.9714C82.9166 7.93453 82.8747 7.9764 82.8747 8.03114V21.7366C82.8747 21.7913 82.9166 21.8332 82.9714 21.8332H86.6133C86.6681 21.8332 86.71 21.7913 86.71 21.7366ZM92.9916 17.8916C92.9916 15.1608 95.0349 13.5056 98.0967 13.5056H100.414C101.104 13.5056 101.461 13.0644 101.461 12.4848C101.461 11.3255 100.578 10.5269 99.0056 10.5269C97.4328 10.5269 96.4853 11.5219 96.4144 12.6426C96.4144 12.6941 96.3725 12.7328 96.3209 12.7328H93.0947C93.0367 12.7328 92.9916 12.6845 92.9948 12.6265C93.185 9.88926 95.4378 7.71236 99.199 7.71236C102.731 7.71236 105.297 9.75401 105.297 12.897V21.7334C105.297 21.7881 105.255 21.83 105.2 21.83H101.558C101.503 21.83 101.461 21.7881 101.461 21.7334V19.9011C100.991 21.1956 99.4471 22.0522 97.5424 22.0522C94.8641 22.0522 92.9884 20.2585 92.9884 17.8884L92.9916 17.8916ZM98.5383 19.2699C100.388 19.2699 101.465 17.8916 101.465 16.1269V15.9337H98.6769C97.4908 15.9337 96.6883 16.6518 96.6883 17.7274C96.6883 18.6387 97.4618 19.2731 98.5383 19.2731V19.2699ZM111.375 7.93804H107.733L107.739 7.93482C107.685 7.93482 107.643 7.97669 107.643 8.03143V21.7369C107.643 21.7916 107.685 21.8335 107.739 21.8335H111.381C111.436 21.8335 111.478 21.7916 111.478 21.7369V13.9471C111.478 12.1534 112.497 10.9683 114.098 10.9683C115.587 10.9683 116.554 12.1534 116.554 13.9471V21.7369C116.554 21.7916 116.596 21.8335 116.651 21.8335H120.293C120.348 21.8335 120.389 21.7916 120.389 21.7369V13.9471C120.389 12.1534 121.408 10.9683 123.01 10.9683C124.499 10.9683 125.466 12.1534 125.466 13.9471V21.7369C125.466 21.7916 125.507 21.8335 125.562 21.8335H129.204C129.259 21.8335 129.301 21.7916 129.301 21.7369V12.733C129.301 9.9507 127.341 7.71584 124.334 7.71584C122.101 7.71584 120.36 8.9009 119.671 10.2534C119.007 8.59819 117.598 7.71584 115.42 7.71584C113.541 7.71584 112.216 8.62717 111.472 9.89596V8.03464C111.472 7.9799 111.43 7.93804 111.375 7.93804Z" fill="#040404"/>
</svg>
