<svg width="64" height="22" viewBox="0 0 64 22" fill="none" xmlns="http://www.w3.org/2000/svg">
<path d="M57.6781 8.96559C58.4466 8.96559 59.0696 8.3426 59.0696 7.5741C59.0696 6.80561 58.4466 6.18262 57.6781 6.18262C56.9096 6.18262 56.2866 6.80561 56.2866 7.5741C56.2866 8.3426 56.9096 8.96559 57.6781 8.96559Z" fill="#20233A"/>
<path d="M37.8043 13.5073C38.487 13.5073 38.8807 12.9954 38.8545 12.4965C38.8415 12.234 38.8151 12.0632 38.7889 11.932C38.3688 10.1207 36.8988 8.78157 35.1528 8.78157C33.0789 8.78157 31.3987 10.6587 31.3987 12.969C31.3987 15.2792 33.0789 17.1564 35.1528 17.1564C36.4525 17.1564 37.3845 16.6839 38.0539 15.9357C38.382 15.5682 38.3164 15.0037 37.9225 14.728C37.5944 14.5048 37.1875 14.5836 36.8856 14.833C36.5968 15.0825 36.0456 15.5812 35.1528 15.5812C34.1028 15.5812 33.2103 14.6754 33.0133 13.4809H37.8043V13.5073ZM35.1398 10.37C36.0847 10.37 36.8988 11.105 37.2007 12.1158H33.0789C33.3808 11.0921 34.1946 10.37 35.1398 10.37ZM31.4774 9.60858C31.4774 9.21489 31.1887 8.89975 30.8212 8.83417C29.6791 8.66363 28.6027 9.0835 27.9859 9.85815V9.75294C27.9859 9.26726 27.592 8.96557 27.1983 8.96557C26.7649 8.96557 26.4106 9.31986 26.4106 9.75294V16.185C26.4106 16.6052 26.7255 16.9727 27.1457 16.9988C27.6052 17.025 27.9859 16.6707 27.9859 16.2112V12.8902C27.9859 11.4202 29.0884 10.2124 30.611 10.3832H30.7686C31.1623 10.3568 31.4774 10.0155 31.4774 9.60858ZM58.4654 10.4488C58.4654 10.0155 58.1112 9.66119 57.6781 9.66119C57.2447 9.66119 56.8905 10.0155 56.8905 10.4488V16.2112C56.8905 16.6445 57.2447 16.9988 57.6781 16.9988C58.1112 16.9988 58.4654 16.6445 58.4654 16.2112V10.4488ZM46.7566 6.09084C46.7566 5.65752 46.4023 5.30322 45.969 5.30322C45.5359 5.30322 45.1816 5.65752 45.1816 6.09084V9.59561C44.6433 9.05732 43.9739 8.79478 43.1731 8.79478C41.0992 8.79478 39.419 10.672 39.419 12.9822C39.419 15.2925 41.0992 17.1696 43.1731 17.1696C43.9739 17.1696 44.6565 16.8939 45.1946 16.3556C45.2602 16.7233 45.5885 16.9988 45.969 16.9988C46.4023 16.9988 46.7566 16.6445 46.7566 16.2112V6.09084ZM43.1863 15.6074C41.9785 15.6074 41.0072 14.4393 41.0072 12.9822C41.0072 11.5384 41.9785 10.3568 43.1863 10.3568C44.394 10.3568 45.3654 11.5251 45.3654 12.9822C45.3654 14.4393 44.3808 15.6074 43.1863 15.6074ZM54.9739 6.09084C54.9739 5.65752 54.6196 5.30322 54.1863 5.30322C53.7532 5.30322 53.3987 5.65752 53.3987 6.09084V9.59561C52.8606 9.05732 52.1912 8.79478 51.3903 8.79478C49.3164 8.79478 47.6362 10.672 47.6362 12.9822C47.6362 15.2925 49.3164 17.1696 51.3903 17.1696C52.1912 17.1696 52.8736 16.8939 53.4119 16.3556C53.4774 16.7233 53.8056 16.9988 54.1863 16.9988C54.6196 16.9988 54.9739 16.6445 54.9739 16.2112V6.09084ZM51.3903 15.6074C50.1826 15.6074 49.2115 14.4393 49.2115 12.9822C49.2115 11.5384 50.1826 10.3568 51.3903 10.3568C52.5981 10.3568 53.5694 11.5251 53.5694 12.9822C53.5694 14.4393 52.5981 15.6074 51.3903 15.6074ZM62.4559 16.2244V10.37H63.1518C63.5193 10.37 63.8474 10.0943 63.8736 9.71355C63.9 9.30665 63.5719 8.96557 63.178 8.96557H62.4559V7.8628C62.4559 7.44269 62.141 7.07518 61.7209 7.049C61.2614 7.02282 60.8809 7.37712 60.8809 7.83662V8.97853H60.2244C59.8569 8.97853 59.5288 9.25429 59.5026 9.63501C59.4762 10.0419 59.8046 10.3832 60.1983 10.3832H60.8677V16.2376C60.8677 16.6707 61.2222 17.025 61.6553 17.025C62.1148 16.9988 62.4559 16.6575 62.4559 16.2244Z" fill="#20233A"/>
<path d="M11 22C17.0751 22 22 17.0751 22 11C22 4.92487 17.0751 0 11 0C4.92487 0 0 4.92487 0 11C0 17.0751 4.92487 22 11 22Z" fill="#20233A"/>
<path d="M18.3376 10.9999C18.3376 10.1074 17.6158 9.39853 16.7362 9.39853C16.3031 9.39853 15.9092 9.56907 15.6205 9.84482C14.5179 9.0572 13.0083 8.54533 11.3281 8.47976L12.0631 5.04056L14.4521 5.55243C14.4785 6.1563 14.9772 6.64198 15.5943 6.64198C16.2243 6.64198 16.7362 6.13011 16.7362 5.49982C16.7362 4.86978 16.2243 4.35791 15.5943 4.35791C15.148 4.35791 14.7541 4.62045 14.5703 5.00117L11.9058 4.4367C11.827 4.42348 11.7482 4.4367 11.6956 4.47609C11.63 4.51548 11.5906 4.58106 11.5776 4.65984L10.7636 8.49273C9.05721 8.54533 7.52136 9.0572 6.40563 9.85803C6.10514 9.57103 5.70543 9.41114 5.2899 9.41174C4.39731 9.41174 3.68848 10.1335 3.68848 11.0132C3.68848 11.6694 4.08216 12.2206 4.63367 12.4702C4.60724 12.6275 4.59428 12.7851 4.59428 12.9559C4.59428 15.4235 7.469 17.432 11.0132 17.432C14.5573 17.432 17.4321 15.4367 17.4321 12.9559C17.4321 12.7983 17.4188 12.6275 17.3927 12.4702C17.9439 12.2206 18.3376 11.6562 18.3376 10.9999ZM7.33761 12.1419C7.33761 11.5118 7.84947 10.9999 8.47977 10.9999C9.10981 10.9999 9.62168 11.5118 9.62168 12.1419C9.62168 12.7719 9.10981 13.284 8.47977 13.284C7.84947 13.297 7.33761 12.7719 7.33761 12.1419ZM13.7303 15.1742C12.9427 15.9618 11.4462 16.0144 11.0132 16.0144C10.5669 16.0144 9.07042 15.9486 8.29577 15.1742C8.17783 15.056 8.17783 14.8722 8.29577 14.754C8.41395 14.6361 8.5977 14.6361 8.71588 14.754C9.21478 15.2529 10.2649 15.4235 11.0132 15.4235C11.7614 15.4235 12.8245 15.2529 13.3102 14.754C13.4284 14.6361 13.6121 14.6361 13.7303 14.754C13.8353 14.8722 13.8353 15.056 13.7303 15.1742ZM13.5201 13.297C12.8901 13.297 12.3782 12.7851 12.3782 12.1551C12.3782 11.525 12.8901 11.0132 13.5201 11.0132C14.1504 11.0132 14.6623 11.525 14.6623 12.1551C14.6623 12.7719 14.1504 13.297 13.5201 13.297Z" fill="white"/>
</svg>
