<svg width="100" height="13" viewBox="0 0 100 13" fill="none" xmlns="http://www.w3.org/2000/svg">
<g clip-path="url(#clip0_971_2746)">
<path fill-rule="evenodd" clip-rule="evenodd" d="M3.82806 0.0125352C3.79306 0.0172852 3.67781 0.0315352 3.57231 0.0445352C2.10106 0.223785 0.834313 0.998785 0.314813 2.03703C-0.123437 2.91254 -0.108437 4.08329 0.351813 4.96454C0.829063 5.87854 1.52256 6.40754 3.38031 7.27479C4.12856 7.62404 5.02856 8.07854 5.19881 8.19279C6.32306 8.94829 6.23331 10.2173 5.02256 10.6878C3.78181 11.1698 2.05556 10.6955 0.410313 9.42103C0.277813 9.31828 0.160063 9.23454 0.148813 9.23454C0.135563 9.23454 0.128063 9.66479 0.128063 10.4163V11.598L0.293313 11.693C1.27931 12.261 2.20756 12.5915 3.12431 12.701C6.29506 13.0803 8.46806 11.6528 8.46656 9.19229C8.46531 7.44104 7.57856 6.37829 5.23581 5.32054C3.48381 4.52954 2.96431 4.21254 2.66781 3.75379C2.12131 2.90854 2.77306 2.02804 4.04256 1.89704C5.10356 1.78754 6.37731 2.14204 7.80031 2.94279L7.95481 3.02979V1.96329V0.896785L7.90331 0.863035C7.44031 0.559535 6.24056 0.174785 5.37431 0.0520352C5.14281 0.0192852 3.99731 -0.00996484 3.82806 0.0125352ZM11.1538 0.981035V1.96204H13.3506H15.5471V7.35779V12.7533H16.7521H17.9571V7.33629V1.91954H20.1323H22.3076V0.959785V3.51563e-05H16.7308H11.1538V0.981035ZM25.7626 6.37679V12.7533H29.9958H34.2291V11.783V10.8125H31.2541H28.2791V9.02104V7.22979H31.0728H33.8666V6.24879V5.26779H31.0728H28.2791V3.59353V1.91954H31.2008H34.1226V0.959785V3.51563e-05H29.9426H25.7626V6.37679ZM39.8698 6.33929C38.4648 9.82579 37.3106 12.6955 37.3051 12.716C37.2956 12.7515 37.3621 12.7533 38.5603 12.748L39.8256 12.7425L40.4138 11.207L41.0021 9.67154L43.7631 9.66654L46.5238 9.66154L46.9663 10.7223C47.2096 11.3055 47.4746 11.946 47.5556 12.1455C47.6363 12.3448 47.7271 12.5633 47.7571 12.6305L47.8118 12.7533H49.0926C49.7968 12.7533 50.3733 12.7453 50.3733 12.7355C50.3733 12.7258 49.1406 9.85879 47.6341 6.36429L44.8948 0.0107852L43.6598 0.00528516L42.4246 -0.000214844L39.8698 6.33929ZM53.8281 6.37679V12.755L56.7553 12.7473C59.9121 12.7388 59.7961 12.7428 60.4608 12.6235C63.2918 12.1163 65.2178 10.2653 65.6623 7.62429C66.2893 3.90029 64.1476 0.737285 60.5781 0.115535C59.9711 0.00978516 60.1131 0.0140352 56.8726 0.00603516L53.8281 -0.00146484V6.37679ZM69.5886 6.37679V12.7533H70.7508H71.9131V6.37679V3.51563e-05H70.7508H69.5886V6.37679ZM77.6713 6.37679V12.7533H81.9046H86.1378V11.783V10.8125H83.1201H80.1023V5.40629V3.51563e-05H78.8868H77.6713V6.37679ZM86.1378 0.0110352C86.1378 0.0170352 87.2031 1.38604 88.5051 3.05329L90.8723 6.08479V9.41903V12.7533H92.0986H93.3248V9.41479V6.07629L95.6933 3.04353L98.0616 0.0107852L96.6286 0.00528516C95.7751 0.00203516 95.1861 0.00778516 95.1721 0.0195352C95.1588 0.0302852 94.4668 0.903785 93.6341 1.96079L92.1198 3.88253L92.0636 3.81604C92.0323 3.77954 91.3511 2.90654 90.5493 1.87604L89.0916 0.00253516L87.6148 0.00128516C86.8023 0.000535156 86.1378 0.00503516 86.1378 0.0110352ZM59.5256 2.03278C61.6848 2.31353 63.0458 3.68479 63.2528 5.78854C63.5311 8.61404 61.8461 10.646 59.1118 10.783C58.9506 10.791 58.8186 10.8058 58.8186 10.8158C58.8186 10.8258 58.2476 10.8338 57.5496 10.8338H56.2808V6.40629V1.97879L57.7788 1.98979C58.9418 1.99804 59.3326 2.00778 59.5256 2.03278ZM44.7438 5.34229C45.2861 6.63254 45.7343 7.70504 45.7401 7.72554C45.7498 7.76104 45.6456 7.76279 43.7621 7.76279C41.8786 7.76279 41.7743 7.76104 41.7841 7.72554C41.7993 7.67104 43.6361 2.80803 43.6498 2.78578C43.6561 2.77528 43.6831 2.81854 43.7098 2.88154C43.7363 2.94479 44.2018 4.05204 44.7438 5.34229ZM98.0593 7.76279C97.5063 7.89929 97.0976 8.28378 96.9376 8.81853C96.9021 8.93678 96.8986 9.09253 96.8918 10.8498L96.8846 12.7533H98.4318H99.9788V10.8598C99.9788 8.74229 99.9863 8.85504 99.8241 8.53079C99.5218 7.92629 98.7528 7.59154 98.0593 7.76279Z" fill="#20233A"/>
</g>
<defs>
<clipPath id="clip0_971_2746">
<rect width="100" height="12.7533" fill="white"/>
</clipPath>
</defs>
</svg>
