<svg width="97" height="22" viewBox="0 0 97 22" fill="none" xmlns="http://www.w3.org/2000/svg">
<g clip-path="url(#clip0_971_2733)">
<mask id="mask0_971_2733" style="mask-type:luminance" maskUnits="userSpaceOnUse" x="0" y="0" width="97" height="22">
<path d="M96.7241 0H0V22H96.7241V0Z" fill="white"/>
</mask>
<g mask="url(#mask0_971_2733)">
<path d="M0.00749274 11.0111H3.71715C3.6337 12.4297 4.7337 13.3059 6.59991 13.3059C8.10198 13.3059 9.14887 12.7407 9.14887 11.8873C9.14887 9.48623 0.178182 11.379 0.178182 6.00036C0.178182 3.08347 2.83715 1.33105 6.42922 1.33105C10.302 1.33105 13.1923 3.34519 12.6234 6.68312H8.88715C9.22853 5.29105 8.15508 4.36174 6.42163 4.36174C4.98025 4.36174 4.1268 5.01037 4.1268 5.80312C4.1268 8.29519 13.0975 6.2545 13.0975 11.6673C13.0975 14.6107 10.412 16.3366 6.59232 16.3366C2.48818 16.3404 -0.110093 14.2997 0.00749274 11.0111Z" fill="#20233A"/>
<path d="M31.7027 1.75586H35.7196L31.532 15.9193H26.8323L24.4275 6.51241L22.0227 15.9117H17.323L13.1165 1.75586H17.194L19.8227 12.2893L22.4247 1.75586H26.5023L28.9906 12.0921L31.7027 1.75586Z" fill="#20233A"/>
<path d="M35.6475 8.83381C35.6475 4.33519 38.6175 1.33105 43.0857 1.33105C47.554 1.33105 50.524 4.33519 50.524 8.83381C50.524 13.3324 47.554 16.3366 43.0857 16.3366C38.6175 16.3366 35.6475 13.3324 35.6475 8.83381ZM46.5375 8.83381C46.5375 6.28105 45.1492 4.64243 43.0857 4.64243C41.0223 4.64243 39.634 6.28105 39.634 8.83381C39.634 11.3866 41.0223 13.0252 43.0857 13.0252C45.1492 13.0252 46.5375 11.3524 46.5375 8.83381Z" fill="#20233A"/>
<path d="M51.4988 8.83381C51.4988 4.33519 54.4688 1.33105 58.9371 1.33105C63.4053 1.33105 66.3753 4.33519 66.3753 8.83381C66.3753 13.3324 63.4053 16.3366 58.9371 16.3366C54.4688 16.3366 51.4988 13.3324 51.4988 8.83381ZM62.3888 8.83381C62.3888 6.28105 61.0005 4.64243 58.9371 4.64243C56.8736 4.64243 55.4853 6.28105 55.4853 8.83381C55.4853 11.3866 56.8736 13.0252 58.9371 13.0252C61.0005 13.0252 62.3888 11.3524 62.3888 8.83381Z" fill="#20233A"/>
<path d="M81.0243 17.1333C81.0243 20.054 78.0581 22.0074 74.2346 22.0074C70.4112 22.0074 67.5588 20.0805 66.9595 16.9702H71.2305C71.4846 18.074 72.5884 18.6961 74.2005 18.6961C75.8126 18.6961 76.9998 18.074 76.9998 16.9399C76.9998 15.8057 75.9264 15.0433 73.6657 15.0433C72.4215 15.0433 70.8929 15.2747 69.5919 15.6085V13.0899C71.9702 12.8092 73.7529 12.1567 74.9971 11.2805C74.4319 11.4247 73.8098 11.5119 73.1309 11.5119C69.6791 11.5119 67.3312 9.61537 67.3312 6.63778C67.3312 3.49709 69.9598 1.34261 73.9236 1.34261C75.9605 1.34261 77.6333 1.90778 78.7598 2.89778C79.014 2.04433 78.904 0.970886 78.6764 0.0112305H81.5326C81.8474 1.64985 81.2519 3.55399 80.0912 4.68054C80.3453 5.27606 80.4857 5.92847 80.4857 6.63399C80.4857 8.95537 78.9836 11.2199 76.2715 12.7485C79.1657 13.1695 81.0281 14.7892 81.0281 17.1371L81.0243 17.1333ZM73.9274 8.72399C75.4826 8.72399 76.5029 7.90468 76.5029 6.6833C76.5029 5.46192 75.4864 4.64261 73.9274 4.64261C72.3684 4.64261 71.3253 5.46192 71.3253 6.6833C71.3253 7.90468 72.3684 8.72399 73.9274 8.72399Z" fill="#20233A"/>
<path d="M81.8438 8.83381C81.8438 4.33519 84.8138 1.33105 89.282 1.33105C93.7503 1.33105 96.7203 4.33519 96.7203 8.83381C96.7203 13.3324 93.7503 16.3366 89.282 16.3366C84.8138 16.3366 81.8438 13.3324 81.8438 8.83381ZM92.7337 8.83381C92.7337 6.28105 91.3455 4.64243 89.282 4.64243C87.2186 4.64243 85.8303 6.28105 85.8303 8.83381C85.8303 11.3866 87.2186 13.0252 89.282 13.0252C91.3455 13.0252 92.7337 11.3524 92.7337 8.83381Z" fill="#20233A"/>
</g>
</g>
<defs>
<clipPath id="clip0_971_2733">
<rect width="96.7241" height="22" fill="white"/>
</clipPath>
</defs>
</svg>
